<svg xmlns="http://www.w3.org/2000/svg" width="400" height="424.242" viewBox="0 0 400 NaN" fill-rule="evenodd" xmlns:v="https://vecta.io/nano"><path d="M201.146 11.742c2.283 5.737 2.898 10.952 1.792 15.196-.303 1.163-.551 3.223-.552 4.577-.001 2.188-.787 7.912-1.34 9.76-.113.377 2.085-1.665 4.884-4.539 5.796-5.951 5.702-5.731 4.388-10.31-1.703-5.937-4.515-11.079-8.225-15.039L200.2 9.366l.946 2.376m-9.538 5.245c2.611 9.317-.655 21.034-8.32 29.845-6.704 7.707-8.487 20.67-3.814 27.731 1.278 1.932 1.114 2.051 3.557-2.57l2.132-4.031-.439-2.233c-.819-4.162.386-12.565 2.206-15.382.323-.5 4.438.085 4.438.631 0 .095-.406 1.299-.903 2.676-1.002 2.779-1.652 6.795-.946 5.85 2.965-3.97 7.06-16.89 8.117-25.613.691-5.694-.763-11.213-4.236-16.079-2.168-3.039-2.449-3.168-1.792-.825m-15.782 16.714c-.487 8.474-3.799 16.803-9.457 23.783-9.331 11.512-10.363 18.756-4.007 28.115 2.579 3.799 2.293 3.658 7.427 3.65l4.499-.007 2.457-4.776c1.352-2.626 2.292-4.673 2.089-4.548-.92.569-4.313-4.326-5.649-8.151-2.461-7.042-.893-15.521 4.521-24.452l2.074-3.422-.004-3.305c-.005-3.881-2.333-10.836-3.626-10.836-.053 0-.199 1.777-.324 3.949m-8.999 30.803l1.641.225-.029 3.724c-.022 3.006.139 4.205.837 6.226.996 2.887 1.065 2.72-1.386 3.366l-1.882.497-.569-1.346c-1.511-3.578-2.131-8.364-1.494-11.539.294-1.47.364-1.498 2.882-1.153m5.25 16.281c.221.697 1.954 2.355 3.348 3.204 1.174.715-1.633 3.374-2.935 2.78-1.983-.903-4.997-4.242-4.997-5.536 0-.19.785-.509 1.745-.709 2.525-.526 2.591-.52 2.839.261m2.109 80.668c-1.664 1.166-.237 3.469 2.149 3.469.695 0 2.709.398 4.476.883l3.211.884v-.884c0-.485.327-1.21.727-1.61.815-.815 1.227-.634-5.862-2.565-3.299-.899-3.651-.912-4.701-.177m12.581 4.22c-.414.669.606 1.453 1.891 1.453.845 0 1.241-.172 1.241-.538 0-1.026-2.595-1.784-3.132-.915m18.926 1.389c0 .824 1.477 2.268 2.32 2.268.955 0 .744-1.318-.349-2.178-1.195-.94-1.971-.975-1.971-.09m-31.378.641c-1.279 1.279-.021 3.141 2.47 3.655.647.134 2.574.641 4.283 1.128 3.796 1.081 3.625 1.082 3.411-.034-.099-.518.096-1.33.448-1.868.343-.523.568-.988.502-1.034-1.798-1.231-10.315-2.647-11.114-1.847m29.174 1.431c0 1.338 1.164 3.453 2.723 4.951 1.69 1.623 2.055-1.04-3.657 26.716-6.016 29.231-4.774 25.83-9.434 25.823-4.863-.007-4.475.473-5.87-7.261-.663-3.68-1.297-6.691-1.407-6.691-.462 0-13.974 95.254-13.55 95.517 1.871 1.156 19.539 1.65 27.339.764 4.552-.517 13.828-2.038 16.008-2.625 1.823-.491 2.176 5.8-2.934-52.319l-4.359-49.573 1.205-3.157c4.344-11.383 4.997-21.285 1.858-28.143-.892-1.948-.955-2.001-2.129-1.781-1.608.302-3.082-.305-4.569-1.882l-1.224-1.298v.959m-16.355 2.783c-.414.669.607 1.453 1.892 1.453.844 0 1.24-.172 1.24-.538 0-1.026-2.595-1.784-3.132-.915m-12.213 2.392c-1.763 1.235-.685 2.797 2.054 2.974.946.061 3.043.506 4.66.989l2.938.877.268-.961c.148-.528.536-1.156.864-1.396.511-.373.395-.49-.819-.821l-4.721-1.305c-3.9-1.085-4.178-1.104-5.244-.357m12.59 4.203c-.323.523.114 1.094 1.135 1.482 1.05.399 1.988.11 1.988-.612 0-.889-2.654-1.628-3.123-.87m-12.598 1.543c-1.457 1.457.012 2.647 4.935 3.999l4.38 1.228c.239.082.329-.286.232-.945-.101-.688.071-1.332.474-1.777.612-.676.561-.719-1.517-1.304l-3.961-1.124c-2.218-.634-3.957-.663-4.543-.077m12.115 4.243c.086.449.536.677 1.497.756 1.412.117 1.707-.185.933-.958-.72-.721-2.575-.567-2.43.202m-8.153 3.753c1.053 2.67 3.695 7.83 3.903 7.622.747-.746-1.465-8.689-2.521-9.057-2.037-.71-2.172-.57-1.382 1.435m-7.488 4.441c-1.579 3.043-2.811 5.582-2.739 5.644.369.315 1.861.989 1.957.884 1.517-1.67 4.794-9.831 4.362-10.866-.647-1.554-.313-1.958-3.58 4.338m-14.729 27.002c-4.921 9.654-5.05 10.07-3.123 10.061.676-.004 10.132-18.295 9.676-18.717-1.411-1.307-1.608-1.047-6.553 8.656m-12.609 25.41l-2.561 4.315.914.488c1.127.602.906.838 3.842-4.096 2.509-4.217 2.594-4.907.615-5.01-.137-.007-1.402 1.929-2.81 4.303m73.028 15.743c-.021 1.96 2.327 26.743 2.627 27.737.221.733.506 2.303.634 3.49l.231 2.157 4.898.007c2.694.004 4.976-.12 5.072-.275s.425-.283.73-.283 1.352-.671 2.325-1.492c2.244-1.893 3.145-1.917 6.594-.178l2.723 1.372 1.741-.815c2.625-1.229 4.216-1.124 6.404.423 1.01.714 2.894 1.746 4.187 2.293s2.811 1.361 3.374 1.808 1.448 1.11 1.966 1.473c1.675 1.175 1.305 2.303-2.732 8.339-4.272 6.388-3.965 5.674-2.478 5.774.911.061 1.56.495 2.748 1.836.856.966 2.302 2.525 3.214 3.465 4.519 4.655-2.218 8.801-7.47 4.598-1.206-.965-3.484-.583-4.676.785-1.187 1.362-5.142 2.34-11.717 2.897-1.674.142-2.636.477-4.04 1.405-1.014.671-2.323 1.436-2.91 1.701s-1.521.898-2.077 1.407c-1.797 1.645-3.385 2.753-4.521 3.156-1.225.433-1.643 1.382-1.894 4.296-.157 1.814-1.635 4.797-2.661 5.371-.692.387-.72 2.015-.079 4.717.727 3.066-.541 5.13-3.671 5.973-3.143.846-5.485 3.569-4.47 5.195 1.077 1.724-.154 4.725-1.937 4.725-.232 0-.721.506-1.087 1.125-.968 1.64-2.19 2.099-3.65 1.372-1.622-.808-3.562-1.522-3.672-1.353-.074.116.64 30.686.836 35.77.05 1.295.109 1.386.495.766 10.495-16.867 21.9-23.452 42.31-24.43 14.83-.711 23.46 1.049 53.077 10.821 19.494 6.432 23.478 7.649 30.599 9.351 6.624 1.583 17.519 3.23 17.517 2.649 0-.142-10.708-27.779-23.795-61.416l-23.794-61.157-4.029-.264c-10.739-.705-18.514-2.494-38.739-8.919-19.061-6.054-24.982-7.452-32.966-7.782-2.965-.122-5.236-.075-5.237.11m-51.859.688c-5.947.97-14.762 3.104-26.375 6.385-18.365 5.189-24.971 6.509-34.592 6.911l-5.391.226-4.465 12.709-13.825 39.89-21.647 62.424c-1.284 3.626-2.266 6.661-2.183 6.744.469.468 7.355.858 11.947.675 9.595-.381 18.86-2.418 37.803-8.312 38.108-11.858 55.105-13.312 70.825-6.059 7.012 3.235 14.161 9.423 18.446 15.967l2.283 3.487-.214-4.221c-.118-2.322-.317-9.144-.442-15.16-.206-9.885-.285-10.923-.828-10.768l-2.253.626c-.909.25-1.919.678-2.245.952s-1.317.626-2.203.782c-1.313.231-1.594.418-1.51 1 .413 2.887-.511 3.967-3.229 3.774-1.408-.1-1.891.049-2.892.89-4.508 3.791-7.712-1.367-4.021-6.474l.763-1.056-2.092-4.308c-4.703-9.688-2.071-18.765 4.696-16.192 1.017.386 1.332-.192 1.341-2.466.006-1.531-1.091-2.029-4.328-1.964-2.322.046-3.902-.467-4.811-1.562-.407-.489-.595-.471-1.627.158-2.473 1.508-4.844.666-6.319-2.244-.874-1.725-.903-1.744-3.109-2-1.778-.206-2.527-.51-3.721-1.507-.821-.686-1.688-1.248-1.925-1.248-1.743 0-5.009-4.232-5.009-6.491 0-.547-.187-1.914-.416-3.037-.459-2.246-.086-3.561 1.599-5.65 1.095-1.357 1.614-6.905.773-8.255-.289-.463-.608-1.703-.709-2.754s-.489-2.573-.86-3.381c-.757-1.649-1.489-4.521-1.489-5.845 0-1.742 2.102-2.971 8.818-5.155 5.966-1.94 8.209-2.87 9.636-3.998.562-.445 5.72-33.127 5.295-33.553-.415-.414-6.839-.374-9.495.06m-81.692 11.076c-.322.78-1.082 2.493-1.689 3.806l-1.391 3.122c-.159.404-6.513 14.619-14.122 31.588l-16.625 37.099-7.006 15.61-6.157 13.774-3.851 8.632-3.286 7.346-4.554 10.205c-1.745 3.895-3.17 7.366-3.166 7.713.012.948 1.254 3.495 2.009 4.12.581.481 10.263.597 77.916.936l77.454.59c.111.111-.048.681-.353 1.267-1.037 1.987-.242 4.28 1.76 5.078 1.052.419 20.495.093 35.787-.601 3.507-.159 4.699-1.17 4.658-3.95l-.026-1.806 29.411.202 125.483.41c.94-.348 2.18-2.428 2.182-3.657.001-.54-1.589-4.507-3.532-8.816l-4.908-10.956-5.503-12.305-11.309-25.161-10.911-24.242-17.832-39.669-9.336-20.816c-.018-.035-2.428.168-5.356.451s-6.481.544-7.896.581l-2.571.068 2.571.216c2.514.211 2.653.278 6.188 2.971l3.617 2.755 24.805 63.36c25.425 64.945 25.345 64.724 24.106 66.384-2.394 3.207-5.002 3.775-17.287 3.769-16.195-.008-27.441-2.243-59.387-11.798-16.282-4.87-26.597-7.544-33.832-8.772-19.742-3.35-32.578 4.717-36.242 22.777-.96 4.733-.041 4.408-12.467 4.408-12.49 0-11.364.304-13.17-3.551-6.56-13.998-16.913-20.523-33.254-20.958-9.791-.261-12.787.235-41.323 6.842-29.128 6.745-43.649 8.865-57.3 8.367-10.48-.382-17.631-1.98-17.631-3.939 0-.733 7.086-19.162 19.908-51.775l25.853-66.115c4.565-11.864 4.09-11.113 8.923-14.141l3.076-1.927-4.729-.253c-2.601-.138-5.268-.343-5.925-.455-1.11-.189-1.237-.102-1.78 1.216m39.431 4.772c1.083.29 1.06.564-.514 6.186-1.567 5.595-1.677 5.764-3.563 5.458-2.174-.353-2.188-.101.535-9.396.775-2.647 1.155-2.888 3.542-2.248m178.971-.094c0 .409 47.877 123.165 48.18 123.533.453.551 5.821 3.912 5.963 3.733.058-.072-10.762-27.885-24.043-61.806l-24.149-61.676-2.592-1.961c-2.261-1.71-3.359-2.306-3.359-1.823m-209.156.994c-1.356.837-1.158.445-4.067 8.051l-22.961 58.77-22.401 57.497c0 .08 2.048-1.088 4.551-2.596l4.551-2.743 1.912-5.418 20.941-60.331 18.34-52.668c.52-1.333.454-1.377-.866-.562m192.076 2.584c6.274 1.733 7.031 11.041.946 11.626-2.171.208-2.163.178-.944 3.763 1.06 3.117.934 3.363-1.654 3.213l-1.653-.095-3.08-8.92c-1.693-4.905-2.966-9.032-2.828-9.17.213-.213 1.585-.363 7.01-.768.404-.03 1.395.128 2.203.351m-3.856 4.116c0 1.923 1.291 3.585 2.704 3.482 3.045-.222 2.006-3.6-1.108-3.6-.878 0-1.596.053-1.596.118m-162.452 8.885c4.429 1.315 5.746 5.79 2.828 9.615-.885 1.16-.889 1.192-.176 1.573.863.462.694 1.05-.569 1.973-.911.667-.947.663-2.364-.275-.839-.556-1.959-.953-2.686-.953-3.583 0-7.217-2.79-7.217-5.54 0-5.088 4.682-8.027 10.184-6.393m-3.539 2.731c-1.821.454-3.143 3.578-2.106 4.978.541.73.551.729 1.455-.12.868-.816.963-.828 2.031-.276 1.489.77 1.483.772 2.095-.694 1.116-2.672-.609-4.601-3.475-3.888m-5.91 12.876c1.448.028 1.482.494.332 4.537-1.279 4.498-1.161 5.013 1.154 5.013 1.555 0 1.356.348 2.933-5.143.977-3.401.991-3.414 2.897-2.986 2.098.471 2.055.207.758 4.692-1.908 6.598-3.665 7.794-9.082 6.185-3.823-1.135-4.294-2.56-2.695-8.154 1.282-4.485 1.363-4.634 2.367-4.365a6.96 6.96 0 0 0 1.336.221m188.908 1.969c1.117 2.372.893 2.586-3.013 2.887-4.006.308-3.953.28-3.329 1.786l.479 1.157 3.551-.252 3.551-.252.611 1.599c.335.879.61 1.777.61 1.995 0 .447-2.508.864-5.193.864-.982 0-1.786.054-1.786.119s.264.891.586 1.836l.585 1.718 4.116-.235 4.116-.235.441 1.472c.792 2.643 1.029 2.51-5.31 2.997-3.518.27-5.882.31-6.09.102-.631-.632-6.428-17.93-6.065-18.102.216-.102 10.427-.955 10.926-.912.303.026.849.681 1.214 1.456m-188.682 15.713c.643.508-2.49 11.112-3.332 11.277-3.286.646-3.515-.125-1.808-6.111 1.779-6.238 2.66-7.123 5.14-5.166m197.229 13.552c3.13 1.515 4.988 6.557 3.221 8.739l-.685.846 3.218 3.369c3.427 3.587 3.695 4.083 2.392 4.432-2.593.695-3.252.393-6.703-3.074-1.81-1.818-3.583-3.306-3.941-3.306-.803 0-.85-.361.452 3.491 1.254 3.711 1.173 3.92-1.47 3.767l-1.653-.095-3.063-8.936c-1.684-4.915-2.959-9.039-2.833-9.165.238-.239 4.551-.664 7.709-.76 1.169-.036 2.36.21 3.356.692m-203.441 2.421c5.748 1.094 5.785 1.113 5.437 2.7-.255 1.161-.267 1.166-2.315 1.047l-2.059-.121-1.122 3.921c-1.334 4.66-1.205 4.497-3.305 4.182-2.016-.302-2.014-.279-.581-5.14 1.232-4.183 1.25-4.074-.727-4.39-1.687-.27-2.026-.767-1.487-2.182.452-1.191.001-1.19 6.159-.017m199.265 1.141c-1.432.129-1.556.217-1.329.946.787 2.528.823 2.565 2.273 2.325.753-.125 1.658-.228 2.012-.231.899-.005.841-1.642-.092-2.575-.404-.404-.858-.705-1.01-.67s-.986.128-1.854.205m-201.728 16.02c5.88 2.813 3.288 11.276-3.471 11.337-5.37.048-8.53-2.963-7.521-7.167 1.107-4.613 6.103-6.509 10.992-4.17m-5.425 2.322c-1.545.622-2.071 4.492-.737 5.427 2.542 1.78 6.071-.858 5.293-3.957-.332-1.325-2.876-2.146-4.556-1.47m225.338 13.701c2.702 7.936 2.823 9.121 1.107 10.837-3 3.001-9.098 1.544-11.257-2.689-1.654-3.245-4.935-13.706-4.403-14.042 1.361-.862 3.549-.394 3.994.854l2.036 5.864c2.299 6.668 2.677 7.234 4.839 7.256 1.827.018 1.767-.755-.598-7.826-1.488-4.448-2.043-6.569-1.744-6.661.241-.075.687-.222.99-.328 2.35-.82 2.558-.543 5.036 6.735m-224.885.371c3.068 1.486 3.458 4.642.53 4.296l-1.871-.222 1.2.813c1.53 1.037 2.042 2.484 1.415 3.998-1.795 4.333-11.728 2.704-11.728-1.923 0-1.914 3.588-1.917 4.036-.003.241 1.033 1.777 1.684 3.157 1.338 1.271-.319.841-.793-1.895-2.086-2.64-1.247-3.462-2.16-3.462-3.848 0-3.114 4.511-4.351 8.618-2.363m-4.546 2.191c-.216.134.361.61 1.284 1.058l1.676.815-.118-.821c-.123-.853-2.024-1.557-2.842-1.052m148.747 2.234c-17.308 1.789-28.771 10.223-36.572 26.911-2.899 6.2-4.361 6.689-6.04 2.021-3.874-10.769-12.824-20.287-23.1-24.564-14.082-5.863-30.638-4.156-66.17 6.821-25.501 7.878-36.489 9.723-49.361 8.289l-4.101-.457-4.5 2.697-4.5 2.698 2.673.461c12.317 2.123 31.851-.242 64.3-7.786 15.892-3.694 24.573-5.542 29.336-6.243 23.159-3.409 39.307 3.4 48.344 20.386l1.739 3.27 8.657.006 8.656.007.663-2.847c2.693-11.575 9.758-19.828 19.857-23.195 10.775-3.592 21.25-2.082 54.178 7.811 24.597 7.391 32.881 9.42 45.363 11.11 5.269.713 21.396.897 24.416.278l1.642-.336-3.663-2.242-3.662-2.242-3.673-.229c-10.828-.673-21.239-3.327-48.594-12.388-29.734-9.849-40.523-11.826-55.888-10.237" fill="#faf1a4"/><path d="M167.86 2.844l-6.06 3.777-1.837.969-.095 20.204-.095 20.205-3.945 1.75c-5.229 2.32-11.548 5.65-16.067 8.467-2.831 1.765-10.326 5.845-12.36 6.728-.144.063-8.37-7.499-18.278-16.804-10.905-10.241-18.296-16.919-18.724-16.919-.39 0-3.74 1.709-7.446 3.797s-7.15 3.902-7.655 4.03c-1.745.442-44.222 43.361-43.925 44.382.139.477 8.136 8.382 17.773 17.567l17.521 16.698-3.434 5.707c-5.494 9.132-10.076 18.852-11.968 25.391l-.594 2.052-13.825.243-19.012.243h-5.186l-5.865 3.645-6.324 4.055c-.892.797-.644 59.972.255 60.785.674.61 2.01.626 24.334.276l23.729-.267c.059.057.917 3.223 1.906 7.035 3.462 13.346 7.74 23.875 13.249 32.608l2.294 3.637-16.651 16.401c-13.102 12.905-16.598 16.54-16.401 17.054.138.359.251.702.251.761s5.661 5.277 12.581 11.597l13.575 12.443.996.953-1.404 3.122-23.706 53.039-6.082 13.59-3.232 7.2-3.876 8.67-1.333 2.976.567 1.91c.312 1.05.805 2.001 1.096 2.113s.421.392.289.623-.112.305.046.163.502-.042.766.222c.556.556 21.991.8 104.559 1.191l49.862.895c-1.036 1.935-.067 4.796 1.93 5.698s37.841-.076 39.362-1.072c1.352-.886 2.133-2.224 2.175-3.728l.037-1.295 4.243-.005 76.874.413c81.31.467 73.713.693 75.207-2.235.992-1.945.96-2.21-.695-5.853l-5.731-12.706-5.873-13.039-6.254-13.958-13.216-29.385-9.691-21.487-1.154-2.572 12.494-12.335c7.832-7.733 12.492-12.598 12.49-13.039s-5.459-5.948-14.785-14.912l-15.83-15.305-1.051-1.099 4.218-6.182c7.76-11.374 11.986-18.898 14.615-26.016.671-1.819 1.336-3.444 1.477-3.613s8.509-.434 18.595-.588l18.338-.281 6.773-4.014 6.772-4.015.225-13.58c.409-24.759.366-48.47-.09-48.926-.306-.306-7.127-.359-25.81-.199l-25.393.216-1.401-5.108c-3.386-12.348-8.822-23.974-16.296-34.848-1.932-2.811-1.984-2.947-1.317-3.489 9.217-7.496 34.269-28.886 34.269-29.26 0-.628-44.378-46.715-45.249-46.992-.394-.125-2.543 1.086-5.875 3.31-2.89 1.929-5.503 3.51-5.807 3.512s-6.751 5.39-14.327 11.973l-14.16 12.128c-.212.088-2.691-1.194-5.509-2.848-12.639-7.421-21.842-11.321-33.194-14.07-2.091-.506-3.849-.967-3.906-1.024s.376-8.946.962-19.754c1.145-21.118 1.256-24.823.758-25.132-.177-.108-11.292-.361-24.702-.561l-32.462-.54-8.081-.178-4.224 2.809m34.75 8.818c5.526 6.508 8.515 13.843 9.694 23.783.24 2.021.608 3.882.818 4.137 2.058 2.498-.209 18.046-3.614 24.777-.482.953-.876 1.814-.876 1.914 0 .14 3.479 1.312 3.896 1.312.206 0 2.1-4.437 3.086-7.231 2.152-6.097 2.941-13.539 2.095-19.765-.45-3.312-.08-9.304.617-10.002.306-.306 2.906 5.319 4.048 8.755 4.482 13.494 3.651 22.289-3.545 37.52-1.026 2.173-1.799 4.009-1.716 4.079s.95.395 1.926.72l1.776.593 2.141-4.488c2.491-5.223 4.326-10.335 6.049-16.856 2.146-8.122 2.584-7.396 2.584 4.287 0 12.629-3.044 18.984-10.999 22.966l-2.551 1.277-11.958.121c-6.577.066-18.604.006-26.726-.135l-14.768-.255-1.866-2.7c-5.442-7.872-6.021-13.165-2.249-20.529 1.537-3 2.955-5.038 7.416-10.662 4.204-5.3 7.27-13.932 7.632-21.483l.238-4.955 1.316 2.016c2.078 3.182 2.621 4.924 2.82 9.038l.18 3.716-2.071 3.469c-7.294 12.223-7.593 23.532-.831 31.356l1.164 1.345 1.709-.83 1.71-.831-1.424-1.886c-3.807-5.042-4.803-10.777-3.064-17.649.769-3.039 4.218-10.127 5.655-11.623 7.809-8.129 11.207-20.717 8.277-30.669l-.525-1.785 1.813 1.95c6.508 7.001 6.984 14.78 1.975 32.308-3.687 12.899-4.094 16.416-2.562 22.124.542 2.02.542 2.02-.165 1.102-3.259-4.234-3.784-13.305-1.118-19.333l.703-1.589-1.353-.351c-2.865-.743-2.723-.827-3.816 2.276-2.278 6.467-1.992 13.08.805 18.621 1.803 3.572 2.112 3.813 3.957 3.083 1.878-.742 1.859-.757 2.652 2.147l.63 2.308 1.896.111c2.552.15 2.588-.075.909-5.689-2.001-6.69-2.001-11.677.001-18.481 2.997-10.189 4.636-17.21 5.031-21.555.216-2.387.651-5.85.966-7.695.787-4.619.226-8.487-2.04-14.055-1.321-3.246-1.015-3.27 1.652-.129m15.572 4.987v7.099l-1.058-.155c-.803-.118-1.222.061-1.735.741l-.677.897-1.119-2.973c-1.343-3.568-3.278-7.101-5.483-10.012l-1.624-2.145 2.634-.209c1.449-.115 4.08-.239 5.848-.276l3.214-.066v7.099m-21.385-4.069c.6 1.465 1.197 3.159 1.326 3.765l.235 1.102-.795-1.102c-.438-.606-2.028-2.3-3.534-3.765l-2.737-2.663h2.208 2.207l1.09 2.663m-11.465-.255c3.361 7.599 3.523 15.12.488 22.661-1.318 3.274-1.622 3.467-1.955 1.244-.989-6.595-9.717-15.633-12.871-13.327-.614.449-.64.705-.273 2.663 1.968 10.496-.861 21.224-7.835 29.714-10.443 12.713-11.665 21.314-4.525 31.844 1.752 2.583 1.77 2.437-.326 2.571l-1.745.112v3.857 3.857l2.48.108 2.479.109v2.157c0 3.063.159 3.319 2.059 3.319h1.614v1.964 1.964l-4.132 1.568c-67.672 25.672-76.737 112.784-15.681 150.694 1.957 1.215 3.172 2.178 2.877 2.28-.281.096-5.249 1.505-11.04 3.13-19.144 5.373-23.771 6.23-35.385 6.556-4.444.124-7.467.315-6.717.424l1.364.199-4.027 2.502c-2.215 1.377-4.027 2.645-4.027 2.819 0 .461-10.124 26.536-25.46 65.569-26.485 67.415-25.165 63.703-22.915 64.431 14.184 4.594 34.697 2.881 73.72-6.155 29.633-6.862 35.614-7.737 45.423-6.643 13.178 1.469 22.381 8.008 28.624 20.338l1.871 3.695 11.211.097c12.742.111 11.747.377 12.378-3.317 2.881-16.877 15.594-26.267 32.724-24.171 8.774 1.074 16.969 3.147 41.69 10.548 30.129 9.02 45.625 11.633 62.11 10.475 8.06-.567 11.168-1.995 11.168-5.131 0-.842-48.423-125.352-49.621-127.592-.2-.374-1.886-1.818-3.746-3.209l-3.382-2.53-4.041-.255c-2.222-.14-6.52-.297-9.55-.349-7.928-.134-13.211-1.353-32.69-7.54l-13.499-4.232c-3.82-1.147-3.715-.874-.986-2.558 21.177-13.072 36.02-36.099 39.311-60.989 4.87-36.825-18.926-74.991-55.217-88.56l-2.843-1.063-.004-2.46-.004-2.459 1.745-.112 1.745-.112.183-2.571.184-2.571 2.755-.184 2.754-.183v-3.857-3.857l-3.948-.104c-4.514-.119-4.542-.146-2.08-2.023 5.937-4.522 8.666-12.405 8.326-24.044-.096-3.282-.038-5.968.129-5.968 1.834 0 16.028 7.207 26.14 13.273 3.995 2.397 7.603 4.357 8.018 4.357.467 0 7.536-5.887 18.555-15.452l18.094-15.336c.734.295 40.79 42.345 40.543 42.563-.153.135-7.303 5.997-15.889 13.027-16.78 13.739-17.998 14.784-17.998 15.444 0 .237 1.398 2.524 3.106 5.081 7.642 11.445 13.501 24.657 16.712 37.685.423 1.718.937 3.517 1.143 4l.374.877 23.92-.272 23.921-.272-.24 28.561-.356 28.677c-.064.063-10.684.291-23.602.505-18.29.304-23.592.495-23.961.864-.261.261-.871 2.033-1.355 3.938-2.673 10.509-5.886 16.98-15.886 31.994-3.828 5.746-5.993 9.331-5.917 9.793.067.402 6.967 7.027 15.364 14.753l16.892 15.643 1.649 1.62-6.216 6.223c-3.419 3.423-6.35 6.141-6.514 6.04-.368-.228.002.753 1.539 4.081l3.39 7.53 9.003 20.018 14.423 32.14 2.395 5.326 12.169 27.089c3.098 6.927 3.154 7.653.742 9.682l-1.167.983-25.346-.235-77.161-.473-51.815-.238.144 1.247c.202 1.752-.426 3.135-1.732 3.81-.962.498-26.126 1.617-37.243 1.656-2.951.011-5.006-3.779-3.34-6.157l.572-.817-3.786.005c-2.082.003-36.926-.18-77.431-.406l-73.646-.411-.861-.788c-3.064-2.801-3.328-1.85 6.739-24.295l6.247-13.958 6.157-13.774 10.843-24.242 8.303-18.504c1.308-2.859 1.729-4.13.836-2.521-.445.801-.888.439-12.567-10.245l-12.204-11.315c-.053-.131 7.261-7.477 16.254-16.324 9.917-9.757 16.35-16.354 16.35-16.768 0-.375-1.163-2.468-2.586-4.652-6.338-9.726-9.914-18.539-13.967-34.423-.975-3.82-2.013-7.186-2.306-7.479-.463-.463-3.647-.488-23.987-.187l-23.509.317c-.03-.016-.111-12.426-.18-27.578L3.863 161.8l12.118-.225 23.137-.281c11.802-.06 12.606-.176 13.114-1.89l1.764-6.205c3.042-10.784 7.043-19.308 15.181-32.345 2.486-3.982 3.764-2.285-15.733-20.903L35.996 83.018c0-.458 39.694-39.729 40.032-39.607.174.064 8.508 7.801 18.519 17.195 12.285 11.527 18.499 17.117 19.116 17.195.666.084 2.083-.727 5.241-3.002 9.739-7.013 22.583-13.482 40.141-20.216 1.919-.736 3.701-1.471 3.96-1.635.374-.236.467-4.644.454-21.48l-.017-21.183h10.494 10.494l.902 2.04m-21.168 53.497c-.713 2.626.5 10.78 1.802 12.11.532.543 4.149-.504 3.888-1.125-1.502-3.565-2.214-8.789-1.492-10.947.239-.715.112-.833-1.126-1.042-.768-.13-1.676-.312-2.019-.406-.477-.13-.725.203-1.053 1.41m5.166 14.87c-1.835.303-1.907.385-1.327 1.506.674 1.303 3.52 3.95 4.625 4.301.761.241 3.476-1.718 2.927-2.113-2.228-1.601-3.041-2.34-3.371-3.065-.398-.874-.813-.966-2.854-.629m62.075 12.972v2.204h-1.614c-1.095 0-1.681-.177-1.825-.551-.321-.837-66.263-.837-66.584 0-.131.34-.689.551-1.458.551h-1.246v-2.204-2.204h36.363 36.364v2.204m-5.583 5.234c.119 2.276-.67 2.891-1.999 1.561-.834-.834-57.831-.834-58.665 0-1.015 1.016-1.338.617-1.338-1.655v-2.206l30.946.094 30.946.094.11 2.112m-3.6 5.418v2.204H194.49h-27.732v-1.959c0-1.078.111-2.069.245-2.204s12.614-.245 27.732-.245h27.487v2.204m46.649-1.406c0 .438.265 1.09.588 1.448.547.603.437.951-1.519 4.804-2.698 5.316-3.262 6.099-4.495 6.241-2.559.295-.58 2.958 3.528 4.748 2.529 1.103 4.632.657 3.719-.788-.505-.798-.424-2.089.208-3.31l.559-1.083 1.864.975c4.808 2.514 9.505.437 9.505-4.202 0-2.841-1.88-4.91-5.877-6.467-.909-.355-2.691-1.211-3.961-1.904-2.732-1.491-4.119-1.647-4.119-.462m-163.379 4.709c-.868.394-2.521 1.519-3.673 2.499a74.54 74.54 0 0 1-4.042 3.178c-2.415 1.73-2.59 3.006-.397 2.882 1.57-.089 1.732.066 5.438 5.201 2.457 3.404 2.623 3.752 2.404 5.05-.434 2.564 2.408 1.993 5.845-1.175.877-.809 1.755-1.471 1.95-1.471.775 0 1.951-1.739 1.951-2.887 0-2.745-3.155-3.931-5.15-1.937-.739.74-1.108.91-1.238.572-.108-.281.568-1.023 1.62-1.778 6.411-4.606 2.354-13.338-4.708-10.134m171.84 1.497c.863 1.612-1.293 4.327-3.079 3.879-1.178-.296-1.218-.88-.196-2.909 1.353-2.685 2.22-2.942 3.275-.97m-102.722 1.49c.126.631.229 1.616.229 2.188v1.039l-1.515-.534c-.834-.294-1.806-.535-2.161-.535-.656 0-1.085-.972-1.094-2.479-.009-1.526 4.231-1.226 4.541.321m10.805 24.799l1.828 26.052c-.058.057-.812-.084-1.676-.315-1.902-.508-1.416 1.645-4.122-18.259l-2.423-17.355c-.151-.76-.057-1.01.379-1.01.733 0 .746-.508.03-1.102-.365-.302-.551-1.124-.551-2.425 0-1.082-.246-2.591-.547-3.353s-.769-2.913-1.042-4.782l-.496-3.398h3.343 3.344l1.933 25.947m8.02-10.795l-.458 27.64-.225 12.488-1.49-1.423-1.491-1.424-1.941-25.757-1.956-26.217c-.011-.339 1.002-.459 3.89-.459h3.905l-.234 15.152m8.123-13.407c-.108.96-1.575 18.138-3.261 38.174l-3.206 36.287c-.203-.203.677-71.953.911-74.277l.194-1.929h2.78 2.779l-.197 1.745m7.633-.551c-.189 1.081-6.163 41.704-10.152 69.032l-1.705 10.793c-.136-.135 6.525-79.9 6.726-80.56.096-.31.981-.459 2.74-.459h2.6l-.209 1.194m7.889-.861c0 .183-.571 3.364-1.268 7.07l-4.051 21.982-4.435 23.783c-.304 1.415-3.637 1.233-3.373-.183.103-.556 1.899-12.705 3.992-26.998l3.804-25.987h2.666c1.465 0 2.665.15 2.665.333m-49.587 1.106c0 .388.087.932.193 1.209.126.328-.264.669-1.12.978-2.028.734-3.689 2.631-4.263 4.869-.769 3.004-14.113 22.759-15.716 23.268-1.189.377-3.635 3.35-4.063 4.937-.222.828-1.031 2.537-1.797 3.798s-2.513 4.269-3.882 6.683c-4.463 7.868-7.64 12.717-8.686 13.258-4.3 2.224-4.582 3.788-4.022 22.33l.333 16.956-.136 1.469-.842-2.167c-10.813-27.836-4.635-59.152 16.203-82.124 6.353-7.004 12.171-10.631 23.941-14.925 3.942-1.439 3.857-1.427 3.857-.539m-60.037 1.37c1.251 1.35 1.242 3.296-.02 3.87-.505.231-.97.351-1.032.268-2.808-3.764-2.971-4.094-2.268-4.607 1.063-.778 2.33-.599 3.32.469m65.861 3.409c2.286 1.166 3.87 6.16 2.452 7.728-.713.787-.712 1.114 0 1.114.791 0 .661-.719 3.096 17.08l2.399 17.217c.17.962-1.444 1.293-2.271.466-.068-.068-1.857-9.694-3.976-21.392l-4.043-22.095c-.239-1.046.457-1.081 2.343-.118m-4.947.302c.105.353 1.447 7.642 2.982 16.196l2.79 15.554-2.355 4.098-6.503 11.259-7.524 13.04-7.407 12.856-7.087 12.305-5.329 9.182-4.616 7.989c-2.732 4.814-2.46 4.661-3.905 2.204-3.319-5.644-3.543-6.152-2.721-6.152.858 0 .956-3.725.447-16.989-.13-3.384-.131-6.153-.002-6.152.205 0 6.374-9.232 9.321-13.95.908-1.453 1.061-1.56 1.312-.918.569 1.456.358 4.358-.399 5.502-1.061 1.602-1 1.653 2.02 1.653 2.924 0 3.084-.102 2.181-1.391-.352-.502-.609-1.776-.664-3.295-.058-1.59-.378-3.116-.893-4.262l-.802-1.785 1.742-3.174 1.742-3.173.098 8.356.099 8.356h1.515 1.515l-.264-10.388-.265-10.389 3.816-5.13 5.446-7.458 1.63-2.328.111 2.062c.086 1.61-.055 2.292-.643 3.119-1.062 1.49-1.056 1.495 2.001 1.495 2.877 0 3.104-.134 2.216-1.307-.307-.406-.544-1.527-.551-2.599-.006-1.038-.277-2.708-.601-3.711l-.589-1.825 2.15-3.232 2.15-3.233.101 6.117.101 6.117h1.327 1.328l-.27-15.928c-.293-17.297-.287-17.357 1.717-18.761 1.046-.732 1.296-.721 1.532.07m68.342 1.613c12.478 7.09 22.995 17.065 30.382 28.817 2.334 3.714 2.462 4.014 1.501 3.511-1.12-.587-3.428.838-2.857 1.764.133.214-.068.383-.455.383-1.294 0-3.339 3.058-2.867 4.288.106.275.741.487 1.463.487 1.438 0 1.496.057 1.869 1.837l.27 1.285-.87-.802c-2.833-2.614-4.806-1.712-5.773 2.639-1.052 4.734-.688 5.359 2.608 4.479.895-.238 1.011-.169 1.011.605 0 .481.41 1.479.912 2.219 1.321 1.946 1.754 6.451.811 8.433-.987 2.075-1.373 5.048-.972 7.496.662 4.039.436 4.589-.716 1.745-3.125-7.716-4.943-10.464-6.922-10.467-.859-.001-1.57-.043-1.581-.093s-.156-1.385-.322-2.966c-.356-3.4-.568-3.675-2.864-3.711-2.099-.032-3.265.72-4.759 3.07l-1.035 1.628-.112-1.933c-.061-1.063.07-2.152.291-2.419.921-1.109 1.061-2.672.359-3.983l-.682-1.272.99-1.875c.694-1.312 1.156-1.811 1.542-1.665.885.337 4.04.649 4.04.4 0-.827-1.286-3.19-1.831-3.363-.364-.115-.86-.69-1.104-1.279-.267-.645-1.02-1.354-1.897-1.788l-1.455-.72 1.307-.431c1.367-.452 1.379-.502.709-3.001-.414-1.542-3.81-.853-3.81.773 0 .443-.299.743-.813.818-1.049.151-2.492 2.298-2.492 3.708 0 1.065.038 1.088 1.424.867 1.331-.213 1.437-.163 1.627.779.112.554.322 1.338.467 1.742.245.683.208.678-.526-.077-1.288-1.324-3.557-1.844-4.464-1.023-1.684 1.525-2.904 8.792-1.425 8.49 3.135-.64 3.243-.627 3.485.425.127.55.616 1.579 1.088 2.286 1.271 1.908 1.364 6.343.195 9.366-.859 2.223-.907 4.744-.172 8.999.299 1.726-.291 1.062-1.141-1.285-.87-2.399-2.554-5.764-4.093-8.173l-1.231-1.928h-1.972-1.972l-.252-3.03c-.445-5.364-4.477-6.007-7.526-1.201l-1.045 1.648-.219-1.596c-.163-1.189-.034-1.959.502-3.011.904-1.774.9-2.245-.035-3.779-.659-1.081-.687-1.31-.226-1.836.289-.331.792-1.128 1.118-1.771.552-1.091.671-1.146 1.786-.826 1.615.463 3.22.432 3.22-.061 0-.882-1.213-2.888-1.872-3.098-.384-.122-.699-.475-.699-.784 0-.795-2.127-2.687-3.069-2.729-.586-.027-.434-.181.59-.601 1.486-.61 1.583-.866.986-2.581-.61-1.748-2.827-1.993-3.677-.405-.205.384-.274.861-.151 1.059s-.087.359-.466.359c-1.056 0-2.661 1.921-2.916 3.489l-.227 1.399 1.497-.201c1.384-.186 1.513-.128 1.727.77l.416 1.706c.165.652.132.669-.293.148-1.296-1.59-3.868-2.215-4.768-1.158-.943 1.107-2.118 5.53-2.135 8.036-.003.498 3.246.232 3.946-.324.346-.274.459-.094.459.732 0 .602.406 1.694.902 2.425 1.394 2.054 1.672 6.204.584 8.733-.895 2.08-1.104 5.079-.636 9.14l.275 2.387-1.074-2.645c-.726-1.789-1.154-3.631-1.322-5.693-.473-5.811-2.426-11.18-5.172-14.22l-1.38-1.527 1.775-3.935 16.433-36.716 4.288-9.275c.091-.001 1.661.848 3.49 1.887m43.319 5.253c-1.225.53-2.119 2.308-1.724 3.429.815 2.313 3.445 3.028 5.089 1.384 2.378-2.378-.263-6.155-3.365-4.813m-118.056 2.317c-.004.151-.349.688-.765 1.193l-.757.919.661-1.194c.665-1.201.876-1.427.861-.918m136.648 1.597c-3.16 1.671-11.11 3.171-12.724 2.401-2.76-1.317-2.802 1.238-.071 4.34 1.845 2.097 3.139 2.284 3.313.48.186-1.925 1.132-1.699 2.835.679 1.955 2.73 1.984 3.52.127 3.374-1.986-.155-2.038 1.066-.168 3.943 3.149 4.846 5.2 5.909 5.602 2.902.113-.85 1.234-3.386 2.599-5.877 4.478-8.178 5.025-10.481 2.933-12.351-1.409-1.258-1.881-1.247-4.446.109m-214.591.423c-.324.252-1.595 2.427-2.825 4.833s-2.65 4.916-3.155 5.577c-1.373 1.8-1.157 2.884 1.036 5.201 2.339 2.471 4.715.511 3.006-2.48-1.464-2.561.157-2.429 4.789.391 4.423 2.693 4.311 2.587 4.357 4.09.057 1.88 1.598 1.899 3.065.039 3.795-4.817 4.454-9.837 1.049-8.004l-1.229.662-4.179-2.32c-5.278-2.931-5.962-4.041-2.49-4.041 1.653 0 2.775-1.237 2.346-2.586-.469-1.48-4.422-2.413-5.77-1.362m16.427.563c-2.378.494-3.266 3.743-1.42 5.195 2.063 1.623 4.91.382 4.91-2.139 0-1.944-1.695-3.428-3.49-3.056m59.835.172c-1.066 1.857-8.777 12.764-9.023 12.764-.171 0 .731-1.447 2.005-3.214l4.633-6.612c1.275-1.869 2.393-3.398 2.483-3.398s.047.207-.098.46m2.057 1.703c0 1.028-6.994 12.17-7.63 12.157-.774-.016-1.35-.737-1.002-1.252 8.712-12.907 8.632-12.805 8.632-10.905m135.001 2.153c-.688 2.797-1.586 3.063-2.884.852-.755-1.285-.185-1.788 2.082-1.839.964-.021 1.03.06.802.987M149.268 143.71c-.38.645-3.489 4.79-3.927 5.234-.902.915.229-1.098 1.844-3.283 1.508-2.04 2.906-3.35 2.083-1.951m3.316 1.312c-.726 1.125-6.688 9.253-7.175 9.781-.189.204-.322-.257-.322-1.118 0-2.165 6.248-10.655 7.391-10.043.712.381.716.433.106 1.38m146.59 2.557c-3.422.711-2.97 5.956.513 5.956 1.789 0 2.976-1.193 2.976-2.99 0-1.853-1.737-3.33-3.489-2.966M87.42 150.125c-2.232.801-2.916 3.467-1.303 5.08 1.866 1.866 4.976.529 4.976-2.14 0-1.821-2.102-3.503-3.673-2.94m187.838 13.695c1.693 5.13 2.869 10.402 3.52 15.785.722 5.961.399 17.155-.423 14.688-.45-1.349-4.868-1.774-6.549-.629-1.419.966-1.281.757-3.968 6.031l-2.09 4.102.057-7.355.057-7.354 1.09-1.523c.6-.837 1.913-2.96 2.918-4.716l1.827-3.193.775 1.379c1.831 3.257 4.817 5.89 4.326 3.813-.132-.555-.378-3.902-.547-7.438-.349-7.297-.425-7.603-1.981-8.006-2.367-.614-5.486 1.219-6.402 3.763-.202.561-.32.285-.461-1.083-.139-1.349-.019-2.129.452-2.938.789-1.355.811-2.308.087-3.758-.863-1.731.803-4.988 2.31-4.516 3.66 1.146 4.638.082 2.182-2.374-.665-.664-1.402-1.632-1.638-2.15s-1.056-1.271-1.822-1.672l-1.393-.73 1.194-.251c.968-.204 1.199-.434 1.224-1.216.048-1.539 3.368 5.625 5.255 11.341m39.822-10.4c-.547 1.125-.823 1.217-7.096 2.364l-4.569.835-.943-.887c-2.293-2.154-2.612-.311-1.159 6.706 1.835 8.861 4.083 11.283 10.072 10.853 7.812-.561 9.802-4.868 7.262-15.715-1.252-5.351-2.36-6.641-3.567-4.156M73.081 157.3c-1.436.724-1.667 1.009-1.861 2.296-.121.808-.411 1.935-.642 2.503-.612 1.5-.519 4.871.171 6.239 2.719 5.392 8.032 4.619 11.185-1.627 1.342-2.658 2.635-2.969 2.855-.687.174 1.809-.788 3.355-2.725 4.383-2.728 1.448-1.795 3.293 1.421 2.81 2.264-.339 3.055-1.074 3.986-3.704 3.654-10.318-5.787-17.455-10.345-7.818-1.241 2.626-1.726 3.227-2.6 3.227-1.804 0-1.041-2.967 1.289-5.019 1.448-1.275 1.542-1.538.861-2.404-.793-1.008-1.872-1.068-3.595-.199m68.775 2.373c-.388.564-1.74 2.926-3.005 5.249-2.624 4.819-2.958 5.256-3.776 4.942-.506-.194-.417-.504.61-2.126.661-1.044 2.427-4.047 3.925-6.673 2.487-4.362 2.732-4.673 2.836-3.596.07.72-.16 1.577-.59 2.204m174.627 1.811c.988 3.937-8.324 7.652-11.097 4.428-2.077-2.415-1.554-2.889 4.763-4.312 5.818-1.31 6.033-1.314 6.334-.116m-135.352.557c4.465 1.187 4.763 1.355 3.809 2.146-.303.252-.551.933-.551 1.515 0 1.264-.105 1.272-3.649.274-1.528-.431-3.588-.885-4.576-1.01-2.437-.308-3.608-1.695-2.658-3.145.831-1.268 2.172-1.23 7.625.22m8.522 3.914c1.248 1.38-1.136 2.138-2.71.863-.473-.383-.72-.86-.57-1.102.413-.669 2.603-.509 3.28.239m18.808 1.93c.579 1.12.403 1.445-.782 1.445-.843 0-2.353-1.544-2.353-2.407 0-1.297 2.337-.58 3.135.962m-25.246.812l3.049.852-.784.709c-.6.543-.753 1.037-.652 2.103.104 1.086.018 1.348-.388 1.193-.287-.11-2.403-.689-4.703-1.286-5.924-1.538-7.068-2.364-5.851-4.222.947-1.446 2.104-1.365 9.329.651m25.442 2.384l1.902-.183 1.015 2.246c2.957 6.547 2.56 15.684-1.128 25.98-.824 2.3-1.579 4.595-1.676 5.1s1.813 23.556 4.247 51.224l4.152 50.564c-.376.355-6.556 1.591-12.945 2.589-9.886 1.543-32.58.987-32.474-.796.12-2.037 13.943-96.523 14.098-96.369.107.106.781 3.445 1.498 7.418l1.304 7.225 4.121.104c3.093.078 4.164-.014 4.296-.367.097-.26 2.489-11.624 5.315-25.256l5.139-24.784-1.445-1.478c-1.607-1.644-2.933-4.253-2.946-5.794-.008-.98.043-.955 1.808.876 1.806 1.873 1.827 1.883 3.719 1.701m-15.82-1.706c0 .962-.086 1.075-.534.703-.428-.355-.447-.584-.095-1.147.582-.933.629-.9.629.444m-3.669 2.159c.171 0 .577.265.901.589 1.389 1.389-1.22 2.211-2.792.88-.95-.804-.098-2.114 1.08-1.661.275.105.64.192.811.192m-58.609 1.377c-2.483 3.832-3.837 5.716-3.837 5.336 0-.428 4.052-6.346 4.346-6.346.08 0-.149.454-.509 1.01m3.876-.406c0 .203-3.84 6.287-5.991 9.493l-1.722 2.567v-1.452c0-1.938 5.985-11.211 7.055-10.931.362.094.658.24.658.323m47.2 2.349c5.511 1.518 5.225 1.382 4.287 2.039-.449.315-.798.952-.798 1.457 0 1.101.082 1.102-4.106-.02-1.883-.505-4.034-.918-4.78-.919-2.116-.001-3.087-1.618-1.766-2.939 1.005-1.005 2.392-.931 7.163.382m22.214.343l1.155 1.459-4.868 23.508-5 23.377c-.125-.124 6.684-47.235 7.078-48.977.246-1.086.286-1.07 1.635.633m-11.012.789c0 .662-.085.709-.568.308-.454-.377-.472-.532-.092-.774.656-.416.66-.412.66.466m-109.705.133c-2.635 1.846-.821 6.323 2.25 5.553 1.482-.372 2.405-1.52 2.405-2.993 0-2.469-2.681-3.943-4.655-2.56m221.601 1.318c-1.73 1.361-1.219 4.333.871 5.062 3.05 1.063 5.413-2.645 3.136-4.922-1.115-1.115-2.697-1.17-4.007-.14m-114.345 1.374c1.248 1.379-1.136 2.138-2.711.863-.472-.383-.719-.86-.57-1.102.414-.669 2.604-.509 3.281.239m-9.335 1.576c5.133 1.376 4.957 1.279 4.019 2.217-.558.558-.703 1.042-.546 1.824.117.585.131 1.063.032 1.063-.465 0-8.508-2.323-9.067-2.619-1.53-.81-1.611-2.671-.141-3.265 1.124-.455 1.065-.463 5.703.78m48.145 3.74c-.005 1.063-2.973 8.318-3.986 9.74-.93 1.306-.967 1.542-.244 1.542.685 0 .472.564-1.885 4.998l-1.779 3.346.024-7.09.024-7.09 1.69-2.541c.929-1.397 2.209-3.571 2.845-4.831l1.157-2.29 1.078 1.701c.594.935 1.078 2.067 1.076 2.515m21.399-3.011c1.033 1.815-.055 6.029-2.952 11.436-1.436 2.678-1.427 3.072.054 2.509.533-.203.966-.332.962-.286s-1.043 2.108-2.311 4.584l-2.304 4.502.016-7.257.015-7.256 1.837-2.765c1.01-1.521 2.236-3.628 2.725-4.683 1.04-2.242 1.112-2.271 1.958-.784m-168.412 2.546c-1.164.719-.766 1.74.979 2.512 1.812.802 2.299 1.492 2.748 3.899.428 2.288-.053 2.834-2.69 3.053l-2.105.175.121-1.056c.083-.723.439-1.207 1.131-1.537 2.217-1.058.376-2.504-2.735-2.148-3.72.426-5.542 2.741-2.499 3.176 1.126.16 1.299.327 1.398 1.34.132 1.364-3.097 2.261-4.193 1.165-.916-.917-.831-4.504.132-5.53 1.646-1.752.65-3.246-1.697-2.543-2.243.672-2.833 1.568-2.27 3.448.256.853.847 3.919 1.314 6.813.997 6.175 2.097 8.076 3.119 5.39.494-1.3 2.126-1.882 7.314-2.61l4.445-.624 1.121.829c2.4 1.775 2.527 1.104 1.255-6.649-.506-3.077-.919-6.134-.919-6.793 0-1.92-4.057-3.491-5.969-2.31m107.487.361c.525.513-.053 1.468-.888 1.468-1.659 0-2.943-1.459-1.732-1.968.566-.237 2.18.071 2.62.5m116.015-.061c-.947.6-1.594 5.184-.965 6.825.318.829 1.434.718 2.045-.203.665-1.002 1.879-.045 1.61 1.27-.09.44-.267 1.595-.394 2.566-.267 2.055-1.109 2.672-1.941 1.42-1.366-2.057-2.423-.578-3.034 4.25-.557 4.391.798 7.17 2.209 4.533.253-.473 1.909-1.209 5.064-2.251 8.829-2.915 11.629-4.634 11.629-7.139 0-1.702-.958-2.639-3.186-3.117-2.814-.604-10.45-5.339-11.232-6.966-.656-1.365-1.083-1.646-1.805-1.188m-125.88 2.305c1.851.466 1.715.171 2.75 5.965.971 5.44.877 5.513-1.4 1.081-1.949-3.794-3.505-7.454-3.169-7.454.109 0 .928.183 1.819.408m-4.634 2.025c.425 1.08.31 1.433-1.964 5.969-2.531 5.051-2.553 5.075-4.041 4.397l-.93-.424 3.025-5.8c1.664-3.191 3.123-5.686 3.242-5.545s.42.772.668 1.403m17.245 2.617l-.052 4.316-.344-3.793c-.317-3.498-.247-4.839.253-4.839.107 0 .172 1.942.143 4.316m-5.759 6.708c1.803 12.927 1.696 13.512-.404 2.199l-2.009-10.775c-.236-1.235-.188-1.393.393-1.281.576.111.839 1.399 2.02 9.857m3.372-.28l.785 11.111c.086 1.212-.484-2.175-1.266-7.528l-1.643-11.111c-.202-1.263-.148-1.379.637-1.379h.858l.629 8.907m67.069-4.049c.009.146-.407.105-.926-.092s-1.586-.359-2.373-.359h-1.431l1.547-1.446 1.547-1.446.81 1.538c.445.846.817 1.658.826 1.805m-22.432-1.01c.994 2.114 1.014 2.07-.586 1.254-.75-.382-1.765-.695-2.257-.695-.878 0-.871-.023.353-1.237 1.471-1.459 1.488-1.455 2.49.678m78.662.567c1.894.966 1.837 1.622-.207 2.403-2.007.766-1.994.777-1.747-1.4.23-2.024.091-1.953 1.954-1.003m-96.174 9.477l2.097 3.966-.345 3.284c-.574 5.454-.519 6.039.571 6.039.566 0 1.006-.252 1.125-.643 1.359-4.462 5.912-10.825 9.332-13.041 1.009-.654 4.464-.885 6.7-.448.89.174 1.558.116 1.897-.164.43-.358.769.038 1.931 2.253 1.526 2.908 1.526 2.91.717 10.298-.313 2.855 1.492 2.609 2.699-.367 2.812-6.938 7.835-12.146 11.767-12.2 5.046-.07 5.794.21 7.011 2.62l1.095 2.169-.38 3.698c-.55 5.364-.541 5.457.528 5.457.77 0 1.097-.412 2.17-2.733 3.083-6.673 7.951-11.786 10.789-11.332 1.427.228 1.419.095.298 4.699-5.821 23.912-22.566 44.55-41.705 51.403l-2.748.984-3.313-.626c-1.914-.361-5.26-.639-7.923-.657l-4.61-.032-2.275-25.938-2.275-25.939 1.192-3.361c1.454-4.102 1.136-4.155 3.655.611m-130.671.232c-1.877 1.877-.495 5.123 2.181 5.123 1.794 0 2.941-1.147 2.941-2.941 0-2.676-3.246-4.058-5.122-2.182m215.243 5.51c-1.98 1.98-.675 5.343 2.074 5.343 2.98 0 4.049-4.34 1.406-5.707-1.485-.768-2.449-.667-3.48.364m-211.786 1.854c-.694 1.176-1.113 1.395-4.855 2.542-5.819 1.784-5.877 1.791-7.001.907-2.417-1.902-2.814 2.36-.632 6.792 1.39 2.824 2.155 3.094 3.294 1.164.652-1.105 1.137-1.384 3.801-2.187 5.627-1.695 6.516-1.846 7.896-1.347 2.499.903 2.863-.712 1.214-5.402-1.273-3.624-2.54-4.465-3.717-2.469m72.948.546l.953.362-4.846 9.463-4.958 9.604c-.12.15-2.34-.7-2.34-.896 0-.466 9.679-18.896 9.924-18.896.172 0 .742.163 1.267.363m136.741 5.217c-2.779 3.762-2.813 8.817-.05 7.558.932-.425 3.011-.133 3.951.554.906.663-.222 4.306-1.334 4.306-1.165 0-3.505-1.505-3.729-2.4-.532-2.116-2.103-1.452-3.559 1.505-2.094 4.255-1.72 7.386.711 5.95 1.096-.648 2.592-.257 8.301 2.171 2.454 1.044 2.864 1.39 3.294 2.783.392 1.267 1.949.779 2.932-.918 2.642-4.557 2.334-8.407-.548-6.864-1.916 1.025-3.841-.523-3.221-2.591.8-2.673 3.616-2.661 4.629.02.838 2.221 2.797.907 3.986-2.672 1.291-3.889.708-6.132-1.289-4.953-1.794 1.06-11.206-2.704-11.473-4.588-.193-1.368-1.541-1.295-2.601.139m-9.29 19.931c-2.368 2.369.127 6.191 3.263 4.998 1.292-.491 2.222-2.541 1.734-3.824-.797-2.096-3.451-2.719-4.997-1.174m-113.85 13.17l-1.284 8.85c0 .158-4.39-1.477-4.642-1.729-.067-.067 1.473-3.705 3.423-8.086s3.6-7.909 3.666-7.842-.456 4.029-1.163 8.807m-27.731-7.305c0 .074-1.171 2.133-2.604 4.574l-2.603 4.439-1.07-.553c-1.329-.687-1.508-.076 1.535-5.263l2.604-4.439 1.069.553c.588.304 1.069.614 1.069.689m80.257 19.536c6.483 1.085 12.16 2.634 26.998 7.369 19.591 6.252 26.517 7.797 39.353 8.777l2.806.215 23.883 61.405 23.014 61.519c-5.225.689-22.256-3.59-46.448-11.671-29.504-9.856-35.621-11.216-50.138-11.152-22.485.1-35.383 6.579-45.228 22.717l-1.788 2.93-.076-2.204-.721-36.055c.085-.086 1.122.272 2.304.794 2.656 1.175 3.765 1.083 4.73-.394.405-.62 1.34-1.385 2.078-1.701 1.594-.681 2.141-2.24 1.356-3.871-1.006-2.089 2.053-5.944 4.733-5.965 3.063-.025 4.235-3.776 2.527-8.088-.12-.303.071-.983.424-1.511l1.724-2.572c.739-1.1 1.167-2.309 1.353-3.816.397-3.227.857-4.222 1.95-4.222.502 0 1.374-.411 1.938-.913 2.309-2.058 4.033-3.364 5.249-3.978 1.922-.97 2.953-1.589 3.41-2.045.225-.226.914-.413 1.53-.417s2.443-.261 4.059-.57 3.765-.649 4.775-.754c2.53-.264 3.62-.74 4.536-1.979.981-1.327 3.209-1.393 5.21-.155 5.142 3.181 10.992-.936 6.65-4.679-.779-.673-1.69-1.755-2.024-2.406-.751-1.466-3.003-3.041-4.349-3.041-.982 0-.904-.16 2.84-5.819 2.117-3.2 3.849-6.176 3.849-6.611 0-1.297-2.828-3.482-6.479-5.006-1.386-.578-3.286-1.602-4.222-2.276-2.019-1.452-3.846-1.603-5.924-.49-1.818.975-2.072.947-5.046-.551-3.398-1.711-5.702-1.35-7.078 1.11-.168.299-.55.543-.85.543s-.929.251-1.397.558c-.696.456-1.309.494-3.384.207-1.462-.202-3.233-.219-4.186-.039-2.315.436-2.658.128-2.786-2.497-.06-1.228-.283-2.558-.495-2.955-.357-.667-2.595-23.878-2.596-26.932-.001-1.916 3.78-2.173 11.936-.809m-54.567.122c.45.286.178 2.761-1.85 16.799l-2.378 16.465-1.736 1.168c-1.074.724-4.198 1.965-8.196 3.258-4.864 1.572-6.78 2.368-7.752 3.222l-1.292 1.135.242 2.403c.134 1.322.578 3.1.987 3.951s.887 2.556 1.062 3.79.496 2.458.714 2.721c.918 1.107.05 6.826-1.352 8.901l-1.283 1.9.27 3.412c.419 5.292 2.877 9.134 5.843 9.134.332 0 .698.245.813.543.411 1.072 2.539 2.028 4.514 2.028 1.815 0 1.927.058 2.422 1.241 1.434 3.431 3.797 4.599 6.375 3.15l1.467-.825 1.155.972c1.327 1.117 1.188 1.083 4.624 1.124 3.391.041 3.821.4 3.821 3.199 0 1.187-.057 2.158-.127 2.158s-.658-.264-1.306-.588c-6.369-3.177-9.057 6.814-4.357 16.199l2.023 4.04-.687.919c-.681.912-1.79 4.546-1.79 5.868 0 2.312 3.887 2.511 6 .308.539-.563.979-.657 2.209-.472 2.255.338 3.629-.797 3.473-2.87-.107-1.429-.06-1.502 1.174-1.8.707-.171 1.604-.494 1.994-.717s1.819-.784 3.176-1.245l2.467-.839.216 3.914c.119 2.152.315 9.12.437 15.484l.222 11.57-1.345-2.204c-7.94-13.015-21.326-20.932-36.736-21.727-12.449-.641-26.959 2.124-52.341 9.978-25.242 7.809-36.251 9.702-48.799 8.391-2.821-.295-3.177 1.556 3.206-16.671l14.942-43.148 15.585-44.996 6.106-17.447 6.099-.433c10.478-.744 16.536-1.985 34.645-7.1 20.056-5.665 32.48-7.885 35.044-6.263m-91.012 10.508c-.586 1.287-.513 1.656.107.535.279-.503.893-1.024 1.364-1.157.844-.237.843-.241-.093-.277-.683-.027-1.072.227-1.378.899m4.998-.302c.661.081 1.652.08 2.204-.004s.012-.151-1.2-.149-1.664.071-1.004.153m224.512.243c0 .078.487.213 1.082.301s.999.023.897-.142c-.182-.295-1.979-.439-1.979-.159m-3.026.485c.457.088 1.118.084 1.469-.008s-.023-.163-.831-.159-1.095.079-.638.167m-4.224.371c.559.084 1.385.082 1.837-.005s-.005-.156-1.015-.154-1.38.074-.822.159m-6.441.369c.652.081 1.809.082 2.571.003s.229-.146-1.185-.148-2.038.064-1.386.145m5.957 5.872l2.825 2.097 24.181 61.821 24.029 61.972c-.485.486-6.353-3.738-6.852-4.932-.297-.71-11.119-28.482-24.048-61.714l-23.687-60.882c-.368-.941.808-.399 3.552 1.638m-211.721.75l-3.315 9.458-16.338 47.199-21.366 61.118c-1.219.951-9.536 5.63-9.401 5.289l5.522-14.249 16.609-42.424 25.401-65.124c.61-1.654 2.465-3.536 3.68-3.735.038-.007-.318 1.104-.792 2.468m25.193 3.043c-.864 3.06-1.503 5.63-1.422 5.712s.884.249 1.782.373l1.633.223 1.576-5.414c1.701-5.847 1.7-5.856-.511-6.215l-1.488-.242-1.57 5.563m158.816-1.516c-2.224.263-2.353-.73 1.264 9.71 3.396 9.802 2.738 8.669 4.889 8.424 2.039-.231 2.054-.295.826-3.556-1.187-3.154-1.226-3.022.982-3.315 3.356-.445 4.315-1.328 4.332-3.987.041-6.051-3.742-8.29-12.293-7.276m42.083 1.687c0 .202.236.78.525 1.285s.525.753.525.551-.236-.78-.525-1.285-.525-.753-.525-.551m-34.642 2.638c1.396 1.908 1.028 2.857-1.25 3.227l-1.523.247-.616-1.854c-.339-1.02-.5-2.042-.358-2.272.385-.623 3.169-.139 3.747.652m39.417 8.014c0 .202.237.78.525 1.285s.525.753.525.551-.236-.78-.525-1.285-.525-.753-.525-.551m-212.191.711c-6.169 2.685-4.003 10.51 3.166 11.44 1.111.144 2.415.568 2.896.942 1.139.885 1.97.861 2.823-.082.678-.749.675-.774-.147-1.394l-.837-.632.805-.717c5.481-4.885-1.595-12.652-8.706-9.557m125.484 1.864c1.573 1.895 4.63 2.219 8.348.884l1.923-.691 1.212 1.065c.667.585 2.146 1.392 3.288 1.793 4.129 1.451 4.135 1.275-.277 7.885-2.115 3.169-3.846 6.081-3.846 6.471s-.189.772-.42.849c-.628.21.167 1.499 1.297 2.104 1.108.592.923 1.123-.39 1.123-.627 0-1.386.489-2.282 1.47-1.205 1.318-1.521 1.469-3.085 1.469-.958 0-2.028.149-2.379.331-1.07.557-3.464 1.092-5.719 1.28-1.778.148-2.563.464-4.618 1.855-1.362.922-2.766 1.676-3.12 1.676s-1.169.537-1.81 1.194c-1.81 1.854-3.23 2.83-4.689 3.223-2.208.595-3.271 1.661-3.271 3.281 0 .771-.247 1.874-.549 2.453-.321.617-.464 1.508-.344 2.154.165.891-.04 1.387-1.068 2.586-2.241 2.616-3.029 5.503-1.908 6.986.78 1.031.719 2.366-.107 2.366-.658 0-6.071 3.76-6.933 4.816-.54.661-1.298 3.455-1.31 4.825-.006.725-.195 1.011-.668 1.011-.363 0-.763.165-.888.368-.282.456-2.935.083-4.297-.603-2.643-1.332-5.399.217-4.877 2.741.823 3.987.252 5.25-2.757 6.094-1.202.338-2.284.772-2.403.965s-.939.352-1.821.352c-1.194 0-1.895.246-2.748.964-.63.53-1.182.902-1.225.826-2.765-4.792-4.356-9.144-4.405-12.048-.051-3.001.465-4.363 1.007-2.658.125.394.709.915 1.298 1.159 4.701 1.948 8.189-8.884 4.159-12.914-1.508-1.507-5.513-2.736-7.387-2.265-.649.163-1.171-.087-2.139-1.025-1.523-1.476-4.255-1.764-5.558-.585-.702.635-.738.621-1.203-.502-.731-1.766-3.056-3.275-5.044-3.275-1.305 0-1.902-.229-2.914-1.117-.699-.615-1.75-1.213-2.333-1.33-1.227-.245-2.552-2.181-2.552-3.729 0-.545-.166-1.569-.369-2.275-.311-1.081-.253-1.427.366-2.201 2.195-2.744 3.344-9.935 2.002-12.531-.313-.605-.662-1.958-.776-3.008s-.491-2.41-.839-3.022-.739-1.783-.87-2.601l-.238-1.489 6.147-1.989 6.546-2.097c.267-.072.167 1.496-.302 4.735-.839 5.799-.946 5.598 3.393 6.346 11.815 2.035 27.061 1.527 41.364-1.381 8.534-1.734 8.044-1.31 7.498-6.497l-.371-3.881c-.009-.577 2.758-.96 7.391-1.024 2.168-.03 4.131-.231 4.408-.452s1.122-.599 1.883-.844 1.67-.84 2.02-1.322c.754-1.037.948-1.08 1.559-.344m-119.613.941c1.989 1.564.606 6.068-1.398 4.553-.984-.745-1.951-.675-2.485.18-.617.989-1.76-.004-1.76-1.529 0-3.275 3.226-5.106 5.643-3.204m208.157.524c0 .202.236.781.525 1.286s.525.753.525.551-.237-.781-.525-1.286-.525-.753-.525-.551m-220.504 15.522c-1.631 5.905-1.195 7.614 2.162 8.488 5.509 1.433 7.298.379 8.959-5.277 1.416-4.817 1.414-4.84-.412-5.148-1.872-.317-1.826-.376-3.074 3.951-1.204 4.175-1.536 4.572-3.425 4.104-1.776-.44-1.83-.926-.6-5.331 1.139-4.078 1.152-4.024-1.02-4.267l-1.58-.177-1.01 3.657m184.128-2.415c-2.113.183-3.894.384-3.956.446-.145.145 5.814 17.596 6.108 17.888.262.259 11.36-.584 11.662-.885.113-.114-.032-.92-.324-1.791l-.531-1.584h-4.155-4.156l-.533-1.584c-.657-1.954-.837-1.813 2.674-2.096 4.105-.33 3.955-.224 3.194-2.274l-.652-1.755-2.56.139c-5.043.274-4.63.367-5.168-1.17-.584-1.668-.736-1.59 3.686-1.889 3.917-.264 3.643-.061 2.926-2.165l-.584-1.715-1.894.051c-1.042.028-3.623.201-5.737.384m-225.482 3.805c-.616 1.351-.498 1.639.167.411.311-.574.497-1.111.413-1.195s-.345.269-.58.784m40.064 17.658c-1.677 5.929-1.685 5.832.497 6.186l1.503.244 1.582-5.539c1.752-6.137 1.769-5.908-.45-6.158l-1.592-.18-1.54 5.447m192.842 8.491c-1.998.179-2.066-.337 1.234 9.345 3.144 9.226 3.055 9.075 5.194 8.843 1.882-.204 1.889-.274.459-4.192-1.313-3.599-1.283-3.246-.278-3.246.557 0 1.911 1.117 4.18 3.449l3.355 3.45 1.789-.189c2.705-.284 2.661-.469-1.029-4.271l-3.425-3.53.826-.944c1.774-2.027.131-6.894-2.847-8.434-1.032-.534-5.261-.66-9.458-.281m-199.878 2.087c-1.012 1.237-.613 2.201 1.031 2.486 2.186.378 2.148.164.849 4.793-1.269 4.52-1.273 4.498.861 4.819l1.486.223 1.276-4.309 1.275-4.308 1.096.154c2.524.353 2.855.262 3.163-.87.163-.596.245-1.134.184-1.195-.456-.456-10.944-2.132-11.221-1.793m208.001 1.87c1.731 1.732.849 3.12-1.982 3.12-1.711 0-3.164-2.031-2.371-3.314.359-.58 3.728-.431 4.353.194M93.48 359.749c-4.67 2.085-5.171 8.488-.831 10.616 4.725 2.318 9.711.45 10.919-4.09 1.253-4.709-5.038-8.78-10.088-6.526m5.913 3.182c1.21 1.005.204 4.813-1.407 5.324-3.539 1.123-5.861-1.67-3.859-4.641 1.19-1.765 3.587-2.076 5.266-.683m215.024 7.062c0 .285.909 3.165 2.02 6.401 2.273 6.619 2.375 7.298 1.183 7.841-2.317 1.056-3.279-.237-6.054-8.134l-2.121-6.037-1.646.125c-2.353.179-2.357-.008.141 7.085 3.085 8.758 4.425 10.515 8.304 10.888 6.789.653 7.628-1.851 4.091-12.221l-2.129-6.244-1.895-.111c-1.438-.084-1.894.014-1.894.407M89.02 376.122c-3.308 1.335-2.295 4.737 1.98 6.655 2.723 1.222 2.888 1.98.429 1.98-1.469 0-1.674-.112-2.173-1.186-.417-.898-.789-1.188-1.531-1.194-.539-.004-1.22-.1-1.513-.213-.774-.296-1.083.85-.612 2.275 1.098 3.328 7.7 4.595 10.315 1.98 2.212-2.212 1.329-4.109-2.894-6.219-2.403-1.201-2.907-1.871-1.407-1.871 1.351 0 2.075.384 2.417 1.284.378.995 3.22 1.635 3.738.842 1.761-2.692-4.784-5.933-8.749-4.333m166.627 4.436c9.91.915 17.723 2.959 42.057 11.001 26.374 8.716 33.992 10.659 46.253 11.797l4.436.411 3.597 2.226c4.63 2.865 4.553 2.904-6.188 3.117-17.586.35-27.795-1.549-59.852-11.129-31.758-9.491-42.144-11.394-51.992-9.526-13.013 2.468-20.898 10.986-24.377 26.329l-.229 1.01h-8.781-8.782l-.931-2.034c-7.028-15.352-20.758-23.051-40.071-22.47-8.892.268-12.081.841-38.023 6.837-32.026 7.401-48.594 9.592-61.708 8.159-6.642-.726-6.585-.54-1.155-3.797l4.723-2.832 2.348.409c11.44 1.994 25.282-.181 50.282-7.903 24.384-7.531 33.429-9.516 47.2-10.362 19.022-1.169 36.66 10.296 42.974 27.933 1.614 4.509 2.832 4.033 5.876-2.296 8.49-17.656 20.306-25.741 39.304-26.894 6.753-.41 8.473-.408 13.039.014" fill="#313131"/><path d="M209.12 9.892l-2.634.209 1.624 2.145c2.205 2.911 4.14 6.444 5.483 10.012l1.119 2.973.677-.897c.513-.68.932-.859 1.735-.741l1.058.155v-7.099V9.55l-3.214.066c-1.768.037-4.399.161-5.848.276m-15.091 2.688c1.506 1.465 3.096 3.159 3.534 3.765l.795 1.102-.235-1.102c-.129-.606-.726-2.3-1.326-3.765l-1.09-2.663H193.5h-2.208l2.737 2.663m-30.57 18.888c.013 16.836-.08 21.244-.454 21.48-.259.164-2.041.899-3.96 1.635-17.558 6.734-30.402 13.203-40.141 20.216-3.158 2.275-4.575 3.086-5.241 3.002-.617-.078-6.831-5.668-19.116-17.195L76.028 43.411c-.338-.122-40.032 39.149-40.032 39.607 0 .149 7.852 7.769 17.448 16.933 19.497 18.618 18.219 16.921 15.733 20.903-8.138 13.037-12.139 21.561-15.181 32.345l-1.764 6.205c-.508 1.714-1.312 1.83-13.114 1.89l-23.137.281-12.118.225.125 27.548.18 27.578c.031.016 10.61-.126 23.509-.317 20.34-.301 23.524-.276 23.987.187.293.293 1.331 3.659 2.306 7.479 4.053 15.884 7.629 24.697 13.967 34.423 1.423 2.184 2.586 4.277 2.586 4.652 0 .414-6.433 7.011-16.35 16.768l-16.254 16.324c.054.132 5.546 5.224 12.206 11.316 11.688 10.693 12.123 11.048 12.551 10.231.509-.97 17.693-39.221 19.801-44.076l1.396-3.213 2.416.279c5.651.653 22.702.312 27.661-.553 6.588-1.149 27.826-6.605 34.036-8.742.295-.102-.92-1.065-2.877-2.28-61.056-37.91-51.991-125.022 15.681-150.694l4.132-1.568v-1.964-1.964h-1.614c-1.9 0-2.059-.256-2.059-3.319v-2.157l-2.479-.109-2.48-.108v-3.857-3.857l1.745-.112c2.096-.134 2.078.012.326-2.571-7.14-10.53-5.918-19.131 4.525-31.844 6.974-8.49 9.803-19.218 7.835-29.714-.367-1.958-.341-2.214.273-2.663 3.154-2.306 11.882 6.732 12.871 13.327.333 2.223.637 2.03 1.955-1.244 3.035-7.541 2.873-15.062-.488-22.661l-.902-2.04h-10.494-10.494l.017 21.183m125.43 28.402c-11.563 10.093-17.912 15.396-18.449 15.409-.45.011-4.086-1.941-8.081-4.338-10.112-6.066-24.306-13.273-26.14-13.273-.167 0-.225 2.686-.129 5.968.34 11.639-2.389 19.522-8.326 24.044-2.462 1.877-2.434 1.904 2.08 2.023l3.948.104v3.857 3.857l-2.754.183-2.755.184-.184 2.571-.183 2.571-1.745.112-1.745.112.004 2.459.004 2.46 2.843 1.063c36.291 13.569 60.087 51.735 55.217 88.56-3.291 24.893-18.133 47.917-39.317 60.992-1.228.758-2.173 1.438-2.1 1.512s3.506 1.181 7.627 2.462l14.106 4.436c19.563 6.233 30.319 7.169 50.388 4.381l1.536-.213 1.09 2.333c.599 1.284 2.328 5.144 3.842 8.578l3.934 8.816 2.83 6.244 2.531 5.612c.486 1.067.883 1.994.883 2.061s.673 1.577 1.495 3.357l1.495 3.236 6.218-6.211c3.421-3.416 6.219-6.323 6.219-6.461s-7.562-7.219-16.805-15.738c-9.28-8.554-16.858-15.815-16.925-16.218-.076-.463 2.088-4.046 5.917-9.793 10-15.014 13.213-21.485 15.886-31.994.484-1.905 1.094-3.677 1.355-3.938.369-.369 5.671-.56 23.961-.864l23.602-.505c.063-.064.223-12.968.356-28.677l.24-28.561-23.921.272-23.92.272-.374-.877c-.206-.483-.72-2.282-1.143-4-3.211-13.028-9.07-26.24-16.712-37.685-1.708-2.557-3.106-4.844-3.106-5.081 0-.66 1.218-1.705 17.998-15.444l15.889-13.027c.298-.264-39.985-42.395-40.652-42.518-.219-.04-8.331 6.852-18.028 15.315m-15.899 43.502c1.27.693 3.052 1.549 3.961 1.904 3.997 1.557 5.877 3.626 5.877 6.467 0 4.639-4.697 6.716-9.505 4.202l-1.864-.975-.559 1.083c-.632 1.221-.713 2.512-.208 3.31.913 1.445-1.19 1.891-3.719.788-4.108-1.79-6.087-4.453-3.528-4.748 1.233-.142 1.797-.925 4.495-6.241 1.956-3.853 2.066-4.201 1.519-4.804-2.051-2.267.089-2.865 3.531-.986m-162.151 4.248c3.752 2.287 3.442 7.2-.639 10.133-1.052.755-1.728 1.497-1.62 1.778.13.338.499.168 1.238-.572 1.995-1.994 5.15-.808 5.15 1.937 0 1.148-1.176 2.887-1.951 2.887-.195 0-1.073.662-1.95 1.471-3.437 3.168-6.279 3.739-5.845 1.175.219-1.298.053-1.646-2.404-5.05-3.706-5.135-3.868-5.29-5.438-5.201-2.193.124-2.018-1.152.397-2.882a74.54 74.54 0 0 0 4.042-3.178c3.683-3.134 6.636-3.952 9.02-2.498m164.359.469c-1.821 2.274-2.264 4.575-.945 4.906 2.674.671 4.417-3.693 1.994-4.99-.487-.26-.793-.236-1.049.084m-171.062 3.709c-.703.513-.54.843 2.268 4.607.475.637 1.952-.821 1.952-1.927 0-2.371-2.485-3.949-4.22-2.68m179.335 11.724c1.143 1.046 1.108 2.952-.075 4.135-2.292 2.292-5.984-.089-4.911-3.167.733-2.1 3.221-2.583 4.986-.968m19.598 3.127c2.092 1.87 1.545 4.173-2.933 12.351-1.365 2.491-2.486 5.027-2.599 5.877-.402 3.007-2.453 1.944-5.602-2.902-1.87-2.877-1.818-4.098.168-3.943 1.857.146 1.828-.644-.127-3.374-1.703-2.378-2.649-2.604-2.835-.679-.174 1.804-1.468 1.617-3.313-.48-2.731-3.102-2.689-5.657.071-4.34 1.614.77 9.564-.73 12.724-2.401 2.565-1.356 3.037-1.367 4.446-.109m-214.755.59c2.491 1.041 1.862 3.89-.858 3.89-3.472 0-2.788 1.11 2.49 4.041l4.179 2.32 1.229-.662c3.405-1.833 2.746 3.187-1.049 8.004-1.467 1.86-3.008 1.841-3.065-.039-.046-1.503.066-1.397-4.357-4.09-4.632-2.82-6.253-2.952-4.789-.391 1.709 2.991-.667 4.951-3.006 2.48-2.193-2.317-2.409-3.401-1.036-5.201.505-.661 1.924-3.171 3.155-5.577 2.866-5.606 3.73-6.186 7.107-4.775m14.808 1.438c1.883 1.695.484 5.024-2.112 5.024s-3.987-3.313-2.112-5.042c1.431-1.319 2.745-1.314 4.224.018m191.529 2.472c-.842.338-.844.35-.183 1.475 1.298 2.211 2.196 1.945 2.884-.852.274-1.114-.838-1.37-2.701-.623m7.186 17.363c1.926 1.733.518 5.023-2.15 5.023-2.553 0-3.925-3.335-2.075-5.041 1.431-1.32 2.745-1.314 4.225.018M90.266 151.07c1.825 1.67.413 5.037-2.112 5.037s-3.938-3.371-2.112-5.032c1.519-1.382 2.718-1.383 4.224-.005m227.012 1.823c1.12 1.351 2.949 11.964 2.487 14.426-1.084 5.781-11.267 8.161-15.294 3.575-2.469-2.812-5.164-14.628-3.569-15.648.497-.318.821-.218 1.57.486l.943.887 4.569-.835c6.273-1.147 6.549-1.239 7.096-2.364.506-1.043 1.562-1.296 2.198-.527m-240.602 4.606c.681.866.587 1.129-.861 2.404-2.33 2.052-3.093 5.019-1.289 5.019.874 0 1.359-.601 2.6-3.227 4.558-9.637 13.999-2.5 10.345 7.818-.931 2.63-1.722 3.365-3.986 3.704-3.216.483-4.149-1.362-1.421-2.81 1.937-1.028 2.899-2.574 2.725-4.383-.22-2.282-1.513-1.971-2.855.687-3.153 6.246-8.466 7.019-11.185 1.627-.69-1.368-.783-4.739-.171-6.239.231-.568.521-1.695.642-2.503.369-2.449 4.063-3.868 5.456-2.097m233.473 4.101c-6.317 1.423-6.84 1.897-4.763 4.312 1.999 2.323 9.944.511 11.007-2.511 1.052-2.991.17-3.245-6.244-1.801M86.885 176.475c1.138 1.138 1.223 3.186.177 4.232-1.655 1.655-4.079 1.266-4.944-.792-1.308-3.111 2.411-5.795 4.767-3.44m221.855 1.102c2.277 2.277-.086 5.985-3.136 4.922-1.338-.467-1.839-1.289-1.839-3.018 0-2.51 3.16-3.719 4.975-1.904m-221.458 6.625c.623.408.872.914.872 1.77 0 .659.413 3.716.919 6.793 1.272 7.753 1.145 8.424-1.255 6.649l-1.121-.829-4.445.624c-5.188.728-6.82 1.31-7.314 2.61-1.022 2.686-2.122.785-3.119-5.39-.467-2.894-1.058-5.96-1.314-6.813-.563-1.88.027-2.776 2.27-3.448 2.347-.703 3.343.791 1.697 2.543-.963 1.026-1.048 4.613-.132 5.53 1.096 1.096 4.325.199 4.193-1.165-.099-1.013-.272-1.18-1.398-1.34-1.787-.256-1.988-1.55-.37-2.386 2.389-1.236 6.614-1.021 6.614.336 0 .297-.454.757-1.01 1.022-.692.33-1.048.814-1.131 1.537l-.121 1.056 2.105-.175c2.637-.219 3.118-.765 2.69-3.053-.449-2.407-.936-3.097-2.748-3.899-1.745-.772-2.143-1.793-.979-2.512.842-.52 3.988-.187 5.097.54m220.21.948c.782 1.627 8.418 6.362 11.232 6.966 2.228.478 3.186 1.415 3.186 3.117 0 2.505-2.8 4.224-11.629 7.139-3.155 1.042-4.811 1.778-5.064 2.251-1.411 2.637-2.766-.142-2.209-4.533.611-4.828 1.668-6.307 3.034-4.25.832 1.252 1.674.635 1.941-1.42.127-.971.304-2.126.394-2.566.269-1.315-.945-2.272-1.61-1.27-1.189 1.791-2.267.795-2.267-2.095 0-4.314 1.642-6.147 2.992-3.339m3.884 8.698c-.247 2.177-.26 2.166 1.747 1.4 2.044-.781 2.101-1.437.207-2.403-1.863-.95-1.724-1.021-1.954 1.003m-220.781 8.676c2.127 1.829.883 5.153-1.929 5.153-1.009 0-1.558-.251-2.212-1.012a2.93 2.93 0 0 1 4.141-4.141m214.613 5.176c2.643 1.367 1.574 5.707-1.406 5.707-2.749 0-4.054-3.363-2.074-5.343 1.031-1.031 1.995-1.132 3.48-.364m-213.071 1.788c.442.472 1.128 1.776 1.522 2.899 1.649 4.69 1.285 6.305-1.214 5.402-1.38-.499-2.269-.348-7.896 1.347-2.664.803-3.149 1.082-3.801 2.187-1.139 1.93-1.904 1.66-3.294-1.164-2.182-4.432-1.785-8.694.632-6.792 1.124.884 1.182.877 7.001-.907 3.742-1.147 4.161-1.366 4.855-2.542.895-1.518 1.129-1.564 2.195-.43m210.095 6.054c.267 1.884 9.679 5.648 11.473 4.588 1.997-1.179 2.58 1.064 1.289 4.953-1.189 3.579-3.148 4.893-3.986 2.672-1.013-2.681-3.829-2.693-4.629-.02-.62 2.068 1.305 3.616 3.221 2.591 2.882-1.543 3.19 2.307.548 6.864-.983 1.697-2.54 2.185-2.932.918-.43-1.393-.84-1.739-3.294-2.783-5.709-2.428-7.205-2.819-8.301-2.171-2.431 1.436-2.805-1.695-.711-5.95 1.456-2.957 3.027-3.621 3.559-1.505.224.895 2.564 2.4 3.729 2.4 1.112 0 2.24-3.643 1.334-4.306-.94-.687-3.019-.979-3.951-.554-2.763 1.259-2.729-3.796.05-7.558 1.06-1.434 2.408-1.507 2.601-.139m-8.076 19.757c1.275.893 1.619 2.157.993 3.656-1.282 3.067-5.709 2.184-5.709-1.139 0-2.508 2.684-3.941 4.716-2.517m-58.062 60.917c-.35.482-1.26 1.077-2.02 1.322s-1.608.625-1.883.844-2.24.422-4.408.452c-4.633.064-7.4.447-7.391 1.024.004.23.171 1.976.371 3.881.546 5.187 1.036 4.763-7.498 6.497-14.303 2.908-29.549 3.416-41.364 1.381-4.339-.748-4.232-.547-3.393-6.346.469-3.239.569-4.807.302-4.735-.219.059-3.165 1.002-6.546 2.097l-6.147 1.989.238 1.489c.131.818.523 1.989.87 2.601s.725 1.972.839 3.022.463 2.403.776 3.008c1.342 2.596.193 9.787-2.002 12.531-.619.774-.677 1.12-.366 2.201.203.706.369 1.73.369 2.275 0 1.548 1.325 3.484 2.552 3.729.583.117 1.634.715 2.333 1.33 1.012.888 1.609 1.117 2.914 1.117 1.988 0 4.313 1.509 5.044 3.275.465 1.123.501 1.137 1.203.502 1.303-1.179 4.035-.891 5.558.585.968.938 1.49 1.188 2.139 1.025 1.874-.471 5.879.758 7.387 2.265 4.03 4.03.542 14.862-4.159 12.914-.589-.244-1.173-.765-1.298-1.159-.542-1.705-1.058-.343-1.007 2.658.049 2.904 1.64 7.256 4.405 12.048.043.076.595-.296 1.225-.826.853-.718 1.554-.964 2.748-.964.882 0 1.701-.158 1.821-.352s1.201-.627 2.403-.965c3.009-.844 3.58-2.107 2.757-6.094-.522-2.524 2.234-4.073 4.877-2.741 1.362.686 4.015 1.059 4.297.603.125-.203.525-.368.888-.368.473 0 .662-.286.668-1.011.012-1.37.77-4.164 1.31-4.825.862-1.056 6.275-4.816 6.933-4.816.826 0 .887-1.335.107-2.366-1.121-1.483-.333-4.37 1.908-6.986 1.028-1.199 1.233-1.695 1.068-2.586-.12-.646.023-1.537.344-2.154.302-.579.549-1.682.549-2.453 0-1.62 1.063-2.686 3.271-3.281 1.459-.393 2.879-1.369 4.689-3.223.641-.657 1.456-1.194 1.81-1.194s1.758-.754 3.12-1.676c2.055-1.391 2.84-1.707 4.618-1.855 2.255-.188 4.649-.723 5.719-1.28.351-.182 1.421-.331 2.379-.331 1.564 0 1.88-.151 3.085-1.469.896-.981 1.655-1.47 2.282-1.47 1.313 0 1.498-.531.39-1.123-1.13-.605-1.925-1.894-1.297-2.104.231-.077.42-.459.42-.849s1.731-3.302 3.846-6.471c4.412-6.61 4.406-6.434.277-7.885-1.142-.401-2.621-1.208-3.288-1.793l-1.212-1.065-1.923.691c-3.718 1.335-6.775 1.011-8.348-.884-.611-.736-.805-.693-1.559.344" fill="#04ac5c"/><path d="M200.094 9.427a.42.42 0 0 1 .217.614c-.135.235-.107.302.062.148s.733.094 1.253.55c.768.673.743.605-.134-.364-.593-.656-1.254-1.179-1.469-1.163s-.183.112.071.215m-24.403 22.896c0 1.313.067 1.851.149 1.194s.081-1.731 0-2.388-.149-.119-.149 1.194m.731 32.507c.002 1.212.071 1.664.153 1.004s.08-1.652-.004-2.204-.151-.012-.149 1.2m-18.369 9.734c0 1.111.069 1.565.153 1.01a8.13 8.13 0 0 0 0-2.02c-.084-.556-.153-.101-.153 1.01m22.581 14.962a18.46 18.46 0 0 0 2.939-.003c.752-.079.045-.142-1.571-.141s-2.232.066-1.368.144m-21.956 4.138v2.204h1.246c.769 0 1.327-.211 1.458-.551.185-.484 4.226-.551 33.292-.551s33.107.067 33.292.551c.144.374.73.551 1.825.551h1.614v-2.204-2.204h-36.364-36.363v2.204m5.142 5.14c0 2.272.323 2.671 1.338 1.655.834-.834 57.831-.834 58.665 0 1.329 1.33 2.118.715 1.999-1.561l-.11-2.112-30.946-.094-30.946-.094v2.206m3.183 3.553c-.134.135-.245 1.126-.245 2.204v1.959h27.732 27.732v-2.204-2.204h-27.487l-27.732.245m3.066 7.928c.009 1.507.438 2.479 1.094 2.479.355 0 1.327.241 2.161.535l1.515.534v-1.039c0-2.999-.264-3.336-2.617-3.336-1.994 0-2.157.063-2.153.827m7.222 2.571c.273 1.869.742 4.021 1.042 4.782s.547 2.271.547 3.353c0 1.301.186 2.123.551 2.425.716.594.703 1.102-.03 1.102-.436 0-.53.25-.379 1.01.111.556 1.201 8.365 2.423 17.355 2.706 19.904 2.22 17.751 4.122 18.259.864.231 1.618.372 1.676.315s-.765-11.781-1.828-26.052l-1.933-25.947h-3.344-3.343l.496 3.398m8.583-2.939c.008.253.888 12.05 1.956 26.217l1.941 25.757 1.491 1.424 1.49 1.423.225-12.488.458-27.64.234-15.152h-3.905c-2.888 0-3.901.12-3.89.459m10.128 1.47c-.234 2.324-1.114 74.074-.911 74.277.079.078 1.521-16.251 3.206-36.287l3.261-38.174.197-1.745h-2.779-2.78l-.194 1.929m8.058-1.47c-.201.66-6.862 80.425-6.726 80.56.062.062.829-4.794 1.705-10.793l10.152-69.032.209-1.194h-2.6c-1.759 0-2.644.149-2.74.459m3.885 25.528l-3.992 26.998c-.264 1.416 3.069 1.598 3.373.183.418-1.939 1.828-9.504 4.435-23.783l4.051-21.982 1.268-7.07c0-.183-1.2-.333-2.665-.333h-2.666l-3.804 25.987m-36.971-19.651c.104.455 1.923 10.397 4.043 22.095l3.976 21.392c.827.827 2.441.496 2.271-.466-.103-.58-1.182-8.328-2.399-17.217-2.435-17.799-2.305-17.08-3.096-17.08-.712 0-.713-.327 0-1.114.626-.692.128-5.558-.668-6.535-1.262-1.548-4.424-2.371-4.127-1.075m32.148 52.779c0 .618.064 1.124.141 1.124.312 0 .473-1.868.177-2.051-.175-.108-.318.309-.318.927m-10.914.358c-.352.563-.333.792.095 1.147.448.372.534.259.534-.703 0-1.344-.047-1.377-.629-.444m13.669 5.174c.789.808 1.517 1.469 1.618 1.469s-.462-.661-1.251-1.469-1.517-1.47-1.618-1.47.462.662 1.251 1.47m-3.663.459c-.394 1.742-7.203 48.853-7.078 48.977.073.073 2.323-10.447 5-23.377l4.868-23.508-1.155-1.459c-1.349-1.703-1.389-1.719-1.635-.633m-10.037.956c-.38.242-.362.397.092.774.483.401.568.354.568-.308 0-.878-.004-.882-.66-.466m21.322 7.584c.005.808.08 1.095.168.638s.084-1.118-.008-1.469-.164.023-.16.831m-21.62 4.012c-.11.287-.046 2.229.143 4.316l.344 3.793.052-4.316c.049-4.085-.079-4.991-.539-3.793m-7.633 1.925l2.009 10.775c2.1 11.313 2.207 10.728.404-2.199-1.181-8.458-1.444-9.746-2.02-9.857-.581-.112-.629.046-.393 1.281m3.661.768l1.643 11.111c.782 5.353 1.352 8.74 1.266 7.528l-.785-11.111-.629-8.907h-.858c-.785 0-.839.116-.637 1.379m-5.269 6.304l.545.734c.058.084.104-.177.104-.581s-.244-.735-.545-.735c-.438 0-.458.114-.104.582m26.079 12.519c0 .707.076.996.168.643s.092-.932 0-1.286-.168-.064-.168.643m-23.226 3.284c0 .416.166.756.368.756s.367-.238.367-.529-.165-.632-.367-.756-.368.113-.368.529m23.593.756c0 .707.076.997.168.643a3 3 0 0 0 0-1.286c-.092-.353-.168-.064-.168.643m.368 4.408c0 .707.075.996.168.643s.092-.932 0-1.286-.168-.064-.168.643m.367 4.04c0 .707.076.997.168.643a3.03 3.03 0 0 0 0-1.285c-.092-.354-.168-.065-.168.642m.375 4.224c.004.808.079 1.096.167.639s.084-1.118-.008-1.469-.163.022-.159.83m-17.173.919l-4.04.222 3.927.072c2.303.043 4.02-.079 4.154-.294.124-.202.175-.335.113-.295s-1.932.172-4.154.295m17.533 3.305c0 .707.075.997.168.643a3.03 3.03 0 0 0 0-1.285c-.093-.354-.168-.065-.168.642m.367 4.041c0 .707.075.996.168.643s.092-.932 0-1.286-.168-.064-.168.643m.367 4.408c0 .707.076.996.168.642s.093-.932 0-1.285-.168-.065-.168.643m.367 4.04c0 .707.076.996.168.643a3 3 0 0 0 0-1.286c-.092-.353-.168-.064-.168.643m.375 4.224c.004.808.079 1.095.167.639s.085-1.119-.007-1.47-.164.023-.16.831m.36 4.224c0 .707.076.996.168.643s.092-.932 0-1.286-.168-.064-.168.643m.367 4.04c0 .708.076.997.168.643s.093-.932 0-1.285-.168-.065-.168.642m.368 4.408c0 .707.075.996.168.643s.092-.932 0-1.286-.168-.064-.168.643m7.358 1.366c.558.084 1.384.082 1.836-.005s-.005-.157-1.015-.154-1.38.074-.821.159m-6.991 2.675c0 .707.076.996.168.642a3.03 3.03 0 0 0 0-1.285c-.092-.354-.168-.064-.168.643m3.673 1.102c0 .707.076.996.168.642a3.03 3.03 0 0 0 0-1.285c-.092-.354-.168-.065-.168.643m-3.298 3.122c.004.808.079 1.095.167.638s.084-1.118-.008-1.469-.163.023-.159.831m.36 4.224c0 .707.075.996.168.642a3.03 3.03 0 0 0 0-1.285c-.093-.354-.168-.064-.168.643m82.192 1.841c.897.283 7.251.493 6.948.23-.084-.073-1.889-.22-4.01-.326s-3.443-.063-2.938.096m-191.828 1.356a5.21 5.21 0 0 0 1.653 0c.455-.087.083-.159-.826-.159s-1.281.072-.827.159m110.003.843c0 .707.076.996.168.643s.092-.932 0-1.286-.168-.064-.168.643m78.616 1.733c.558.084 1.385.082 1.836-.005s-.005-.156-1.015-.154-1.38.074-.821.159m-78.249 2.675c0 .707.076.996.168.643a3 3 0 0 0 0-1.286c-.092-.354-.168-.064-.168.643m67.224.62a3 3 0 0 0 1.286 0c.354-.092.064-.168-.643-.168s-.996.076-.643.168m-4.954.374c.457.088 1.118.085 1.469-.007s-.022-.164-.83-.16-1.096.079-.639.167m-61.902 3.046c0 .707.075.997.168.643s.092-.932 0-1.286-.168-.064-.168.643m3.673 1.102c0 .707.075.996.168.643s.092-.932 0-1.286-.168-.064-.168.643m62.816-.481c.354.092.932.092 1.286 0s.064-.168-.643-.168-.996.075-.643.168m-66.115 3.603c.004.808.08 1.096.167.639s.085-1.118-.007-1.469-.164.022-.16.83m74.197 0c.004.808.079 1.096.167.639s.084-1.118-.007-1.469-.164.022-.16.83m-73.837 4.224c0 .707.076.997.168.643s.093-.932 0-1.285-.168-.065-.168.642m-101.366.999c.559.084 1.385.082 1.837-.005s-.005-.157-1.015-.154-1.38.074-.822.159m101.733 3.042c0 .707.076.996.168.643a3 3 0 0 0 0-1.286c-.092-.354-.168-.064-.168.643m-93.656 2.387c.004.808.079 1.096.167.639s.085-1.118-.007-1.469-.164.022-.16.83m-14.325 1.102c.004.808.079 1.096.167.639s.085-1.118-.007-1.47-.164.023-.16.831m174.838-.665c.354.092.932.092 1.286 0s.064-.168-.643-.168-.996.076-.643.168m-66.489 1.583c0 .708.075.997.168.643a3.03 3.03 0 0 0 0-1.285c-.093-.354-.168-.065-.168.642m-64.873 1.426c-.798.832-.982 1.322-.862 2.295l.151 1.238.059-1.265c.038-.816.409-1.632 1.045-2.296.543-.567.905-1.03.804-1.03s-.64.476-1.197 1.058m65.205 2.492c-.028.64-.257 1.247-.509 1.349-.36.145-.357.191.011.214.605.037.918-.786.711-1.873-.128-.666-.174-.598-.213.31m-18.691 4.416a3 3 0 0 0 1.286 0c.353-.092.064-.168-.643-.168s-.997.076-.643.168m-17.626.378c.558.085 1.385.082 1.837-.005s-.005-.156-1.015-.153-1.38.074-.822.158m12.484 0a8.13 8.13 0 0 0 2.02 0c.555-.085.101-.153-1.01-.153s-1.566.068-1.01.153m98.439.724c.353.093.932.093 1.285 0s.064-.168-.643-.168-.996.076-.642.168m-4.775.368a3.03 3.03 0 0 0 1.285 0c.354-.093.064-.168-.643-.168s-.996.075-.642.168m-133.708 2.318c0 .707.076.996.168.642s.093-.932 0-1.285-.168-.064-.168.643m143.258.987c.353.093.932.093 1.285 0s.064-.168-.643-.168-.996.076-.642.168m-5.371.405c-.099.16.388.224 1.08.144s1.26-.212 1.26-.291c0-.276-2.162-.14-2.34.147m.596 2.281c.082.303.549.581 1.038.619.702.053.735.025.155-.135-.404-.111-.871-.389-1.038-.619-.2-.275-.253-.229-.155.135m-187.335 1.102c0 .707.076.996.168.642a3.03 3.03 0 0 0 0-1.285c-.092-.354-.168-.064-.168.643m192.11-.849a3.03 3.03 0 0 0 1.285 0c.354-.092.064-.168-.643-.168s-.996.076-.642.168m0 4.04c.353.093.932.093 1.285 0s.064-.168-.643-.168-.996.076-.642.168m1.469 3.673c.353.093.932.093 1.285 0s.065-.168-.642-.168-.997.076-.643.168m-146.563 3.788c0 .707.075.996.168.642a3.03 3.03 0 0 0 0-1.285c-.093-.354-.168-.064-.168.643m146.563.253a3.03 3.03 0 0 0 1.285 0c.354-.093.065-.168-.642-.168s-.997.075-.643.168m-4.775.367c.353.093.932.093 1.285 0s.065-.168-.642-.168-.997.076-.643.168m9.005 11.032c.661.082 1.652.081 2.204-.003s.012-.151-1.2-.149-1.664.071-1.004.152m-5.332.355a3.03 3.03 0 0 0 1.285 0c.354-.093.065-.168-.642-.168s-.997.075-.643.168m-134.16 1.727c0 .078.567.209 1.26.29s1.179.016 1.08-.143c-.178-.288-2.34-.424-2.34-.147m139.123 1.952c.457.088 1.118.085 1.469-.007s-.023-.164-.831-.16-1.095.08-.638.167m9.086 8.189c.79.808 1.518 1.469 1.619 1.469s-.462-.661-1.251-1.469-1.518-1.469-1.619-1.469.462.661 1.251 1.469m-128.332-.254c-.026.419-.212.569-.501.405-.365-.206-.366-.158-.006.23.563.607.955.267.724-.628-.166-.64-.176-.641-.217-.007m124.476 1.907c1.301 1.313 2.449 2.387 2.55 2.387s-.882-1.074-2.183-2.387-2.449-2.388-2.55-2.388.881 1.075 2.183 2.388m5.601 4.11c.354.092.932.092 1.286 0s.064-.168-.643-.168-.996.075-.643.168m-9.55.734a3 3 0 0 0 1.286 0c.353-.092.064-.168-.643-.168s-.996.076-.643.168m-128.565 2.318c0 .707.076.997.168.643a3 3 0 0 0 0-1.286c-.092-.353-.168-.064-.168.643m-81.175 4.775c0 .707.075.997.168.643s.092-.932 0-1.286-.168-.064-.168.643m107.303 3.49c.001 2.02.063 2.799.137 1.732s.074-2.72-.002-3.673-.136-.08-.135 1.941m115.201-.041c0 .079.567.21 1.26.291s1.179.016 1.08-.143c-.178-.288-2.34-.424-2.34-.148m-9.091.845c.354.092.932.092 1.286 0s.064-.168-.643-.168-.996.075-.643.168m-215.79 5.516c.457.088 1.118.085 1.469-.007s-.022-.164-.83-.16-1.096.079-.639.167m106.374 3.597c.001 2.02.063 2.8.137 1.732s.074-2.72-.001-3.673-.137-.079-.136 1.941m52.116-2.134c.353.092.932.092 1.286 0s.064-.168-.643-.168-.997.075-.643.168m-7.897.38c.656.081 1.731.081 2.387 0s.12-.149-1.193-.149-1.851.067-1.194.149m13.774-.013a3.03 3.03 0 0 0 1.285 0c.354-.092.065-.168-.642-.168s-.997.076-.643.168m-99.174 1.112a8.14 8.14 0 0 0 2.021 0c.555-.084.101-.153-1.011-.153s-1.565.069-1.01.153m-5.509.357c.353.093.932.093 1.285 0s.065-.168-.643-.168-.996.076-.642.168m97.715 1.487c.966.076 2.453.075 3.306-.002s.062-.139-1.756-.138-2.516.064-1.55.14m-69.8 1.084a3 3 0 0 0 1.286 0c.353-.092.064-.168-.643-.168s-.996.076-.643.168m22.448 3.237c.001 2.02.063 2.799.137 1.732s.074-2.72-.001-3.673-.137-.08-.136 1.941m-45.588-2.852a27.08 27.08 0 0 0 3.489 0c.96-.076.175-.138-1.745-.138s-2.704.062-1.744.138m167.134 2.301c0 .909.071 1.281.159.826a5.27 5.27 0 0 0 0-1.653c-.088-.454-.159-.082-.159.827m-82.653 3.569a8.13 8.13 0 0 0 2.02 0c.556-.085.101-.153-1.01-.153s-1.566.068-1.01.153m76.588.731c.457.088 1.118.084 1.469-.008s-.022-.163-.83-.159-1.096.079-.639.167m-165.293 2.58a20.86 20.86 0 0 0 3.122 0c.858-.077.156-.14-1.561-.14s-2.42.063-1.561.14m87.424-.009c.457.088 1.118.085 1.469-.007s-.023-.164-.831-.16-1.095.079-.638.167m3.301-.001a5.21 5.21 0 0 0 1.653 0c.455-.087.083-.159-.826-.159s-1.281.072-.827.159m-44.217 3.782c0 2.121.061 2.989.135 1.928s.074-2.796 0-3.857-.135-.193-.135 1.929m-48.708-.475c.457.088 1.118.084 1.469-.008s-.022-.163-.83-.159-1.096.079-.639.167m6.056-.007a3 3 0 0 0 1.286 0c.354-.092.064-.168-.643-.168s-.996.076-.643.168m63.433 1.859l-1.265 1.377 1.377-1.265c1.282-1.179 1.546-1.489 1.266-1.489-.062 0-.681.62-1.378 1.377m-17.243 3.581c0 1.785.108 3.137.24 3.005.257-.257.181-5.828-.083-6.092-.087-.087-.157 1.303-.157 3.087M71.35 397.315a3.03 3.03 0 0 0 1.285 0c.354-.093.065-.168-.642-.168s-.997.075-.643.168m-1.102 3.306c.353.092.932.092 1.286 0s.064-.168-.643-.168-.997.075-.643.168m112.305 1.399c.685.707 1.328 1.286 1.429 1.286s-.377-.579-1.062-1.286-1.329-1.285-1.43-1.285.377.578 1.063 1.285m-129.381 4.484c.457.088 1.118.085 1.47-.007s-.023-.164-.831-.16-1.096.079-.639.167m10.464-.007a3 3 0 0 0 1.286 0c.353-.092.064-.168-.643-.168s-.996.076-.643.168m-8.625 3.319c.66.082 1.652.08 2.204-.004s.012-.15-1.2-.148-1.664.07-1.004.152m5.503 0c.657.081 1.731.081 2.388 0s.119-.148-1.194-.148-1.85.066-1.194.148m275.666 2.558a3 3 0 0 0 1.286 0c.353-.092.064-.168-.643-.168s-.997.076-.643.168m12.489 0c.353.093.932.093 1.285 0s.064-.168-.643-.168-.996.076-.642.168m-156.982 3.152c.155.155 4.238.237 9.073.183l8.79-.099-9.073-.184c-4.99-.1-8.946-.056-8.79.1m-116.48.91c2.272.064 5.991.064 8.264 0s.413-.117-4.132-.117-6.405.052-4.132.117m68.891.367a185.86 185.86 0 0 0 8.448 0c2.261-.064.31-.117-4.337-.117s-6.496.053-4.111.117m77.657.358c.652.081 1.809.083 2.571.003s.229-.146-1.186-.147-2.037.063-1.385.144m60.451.377a185.86 185.86 0 0 0 8.448 0c2.262-.065.31-.117-4.336-.117s-6.497.053-4.112.117m68.85.367c2.273.064 5.992.064 8.264 0s.414-.117-4.132-.117-6.405.053-4.132.117m-155.533 1.103c2.992.061 7.785.061 10.652-.001s.418-.112-5.44-.112-8.204.051-5.212.113m15.588 4.024a5.21 5.21 0 0 0 1.653 0c.455-.087.083-.159-.826-.159s-1.281.072-.827.159m-12.488.368c.454.087 1.198.087 1.652 0s.083-.159-.826-.159-1.281.071-.826.159m-12.856.367a5.21 5.21 0 0 0 1.653 0c.454-.088.082-.159-.827-.159s-1.281.071-.826.159" fill="#848385"/><path d="M211.141 30.79c-.067.404-2.436 3.104-5.264 6.001l-5.142 5.266-2.3 8.081c-3.665 12.877-3.818 15.445-1.403 23.475 1.77 5.888 1.793 5.726-.815 5.726h-2.131l-.444-2.112c-.661-3.149-.77-3.245-2.791-2.473-.937.358-1.76.585-1.829.506-.695-.799-2.29-3.785-2.928-5.482l-.797-2.12-2.198 4.188c-1.45 2.762-2.364 4.127-2.683 4.006-.267-.1-.065.354.448 1.009l.932 1.191-1.917 1.031c-1.055.567-1.643.95-1.308.851.422-.124-.127 1.232-1.785 4.409-1.317 2.523-2.298 4.685-2.179 4.804s9.937.233 21.818.254l21.602.039 2.557-1.277c7.958-3.975 11.005-10.332 11.005-22.966 0-11.683-.438-12.409-2.584-4.287-1.723 6.521-3.558 11.633-6.049 16.856l-2.141 4.488-1.776-.593c-.976-.325-1.843-.65-1.926-.72s.69-1.906 1.716-4.079c4.594-9.723 6.759-17.785 6.322-23.541-.625-8.225-3.518-18.232-6.331-21.895-1.033-1.345-1.567 3.747-1.024 9.764.632 6.994-.072 13.186-2.177 19.15-.99 2.805-2.884 7.245-3.091 7.245-.417 0-3.896-1.172-3.896-1.312 0-.1.394-.961.876-1.914 3.413-6.748 5.666-22.295 3.593-24.8-.2-.242-.638-2.421-.972-4.842-.63-4.562-.783-5.168-.988-3.927m-20.105 26.016c-1.126 2.198-1.697 2.985-1.916 2.639-1.452-2.291.257 7.861 1.857 11.031 1.364 2.703 1.619 2.855.849.507-.914-2.788-.812-9.79.203-13.83 1.039-4.137.962-4.164-.993-.347m-15.658 27.248c.177.312-.169.981-.949 1.836l-1.228 1.346 1.449-1.371c1.207-1.142 1.366-1.45.95-1.837-.407-.377-.449-.372-.222.026m11.766 310.069c.789.808 1.517 1.469 1.618 1.469s-.461-.661-1.251-1.469-1.517-1.469-1.618-1.469.462.661 1.251 1.469m-35.353.263a8.13 8.13 0 0 0 2.02 0c.555-.084.101-.153-1.01-.153s-1.566.069-1.01.153M25.997 416.064c.864.077 2.186.076 2.938-.003s.046-.142-1.57-.141-2.232.066-1.368.144m64.269.371c1.667.068 4.394.068 6.061 0s.303-.124-3.03-.124-4.697.056-3.031.124m69.054.367c1.667.068 4.394.068 6.061 0s.303-.124-3.03-.124-4.697.056-3.031.124m69.055.368c1.666.068 4.394.068 6.06 0s.303-.124-3.03-.124-4.697.055-3.03.124m69.071.367a84.03 84.03 0 0 0 5.877-.001c1.556-.068.185-.124-3.048-.124s-4.505.057-2.829.125m68.687.367c1.676.069 4.321.068 5.877 0s.185-.125-3.048-.124-4.505.056-2.829.124m-157.409 5.122c.353.093.932.093 1.285 0s.064-.168-.643-.168-.996.076-.642.168m-12.489.368c.354.092.932.092 1.286 0s.064-.168-.643-.168-.996.075-.643.168m-12.856.367c.354.092.932.092 1.286 0s.064-.168-.643-.168-.996.076-.643.168" fill="#ee5433"/></svg>